<?xml version="1.0" encoding="utf-8"?>
<!-- Generator: Adobe Illustrator 24.1.0, SVG Export Plug-In . SVG Version: 6.00 Build 0)  -->
<svg version="1.1" id="Layer_1" xmlns="http://www.w3.org/2000/svg" xmlns:xlink="http://www.w3.org/1999/xlink" x="0px" y="0px"
	 viewBox="0 0 36 36" style="enable-background:new 0 0 36 36;" xml:space="preserve">
<style type="text/css">
	.st0{fill:#E6E7E8;}
	.st1{fill:#DD2E44;}
	.st2{fill:#55ACEE;}
	.st3{fill:#FFAC33;}
	.st4{fill:#553788;}
	.st5{fill:#9266CC;}
	.st6{fill:#EDBB9F;}
	.st7{fill:#A0041E;}
	.st8{fill:#226699;}
</style>
<path class="st0" d="M32,32c0,2.2-1.8,4-4,4H8c-2.2,0-4-1.8-4-4V4c0-2.2,1.8-4,4-4h20c2.2,0,4,1.8,4,4V32z"/>
<path class="st1" d="M11,7c-2.5,0-4.6,1.9-4.9,4.3C6.8,10.5,7.8,10,9,10c2.2,0,4,1.8,4,4c0,2,1.5,2.2,0.7,2.9
	c2.4-0.3,2.3-2.4,2.3-4.9C16,9.2,13.8,7,11,7z"/>
<path class="st2" d="M23,14c0-2.2,1.8-4,4-4c1.2,0,2.2,0.5,2.9,1.3C29.6,8.9,27.5,7,25,7c-2.8,0-5,2.2-5,5c0,2.5-0.1,4.6,2.3,4.9
	C21.5,16.2,23,16,23,14z"/>
<path class="st3" d="M14,12c0-5,4-9,4-9s4,4,4,9s-1.8,9-4,9S14,17,14,12z"/>
<path class="st4" d="M11.7,21.1c0.8,0.7,1.3,1.8,1.3,2.9c0,2.2-1.8,4-4,4c-1.2,0-2.2-0.5-2.9-1.3C6.4,29.1,8.5,31,11,31
	c2.8,0,5-2.2,5-5C16,23.5,14.1,21.4,11.7,21.1z M27,28c-2.2,0-4-1.8-4-4c0-1.2,0.5-2.2,1.3-2.9C21.9,21.4,20,23.5,20,26
	c0,2.8,2.2,5,5,5c2.5,0,4.6-1.9,4.9-4.3C29.2,27.5,28.2,28,27,28z"/>
<path class="st5" d="M14,24c0,5,3,9,4,9s4-4,4-9c0-0.9-0.1-1.7-0.2-2.5c-0.5-3.7-2-6.5-3.8-6.5s-3.4,2.7-3.8,6.5
	C14.1,22.3,14,23.1,14,24z"/>
<path class="st6" d="M13,17c0-3.9,3-4,5-4s5,0.1,5,4c0,3.9-2.2,7-5,7C15.2,24,13,20.9,13,17z"/>
<circle class="st7" cx="6" cy="11" r="1"/>
<circle class="st8" cx="30" cy="11" r="1"/>
<circle class="st1" cx="18" cy="3" r="1"/>
</svg>
