<?xml version="1.0" encoding="utf-8"?>
<!-- Generator: Adobe Illustrator 24.1.0, SVG Export Plug-In . SVG Version: 6.00 Build 0)  -->
<svg version="1.1" id="Layer_1" xmlns="http://www.w3.org/2000/svg" xmlns:xlink="http://www.w3.org/1999/xlink" x="0px" y="0px"
	 viewBox="0 0 36 36" style="enable-background:new 0 0 36 36;" xml:space="preserve">
<style type="text/css">
	.st0{fill:#31373D;}
	.st1{fill:#CCD6DD;}
	.st2{fill:#E1E8ED;}
	.st3{fill:#9266CC;}
	.st4{fill:#F4900C;}
</style>
<path class="st0" d="M36,27c0,2.2-1.8,4-4,4H4c-2.2,0-4-1.8-4-4V9c0-2.2,1.8-4,4-4h28c2.2,0,4,1.8,4,4V27z"/>
<path class="st1" d="M11,24c0,2.2-0.8,3-3,3H4c-2.2,0-3-0.8-3-3V12c0-2.2,0.8-3,3-3h4c2.2,0,3,0.8,3,3V24z M23,24c0,2.2-0.8,3-3,3
	h-4c-2.2,0-3-0.8-3-3V12c0-2.2,0.8-3,3-3h4c2.2,0,3,0.8,3,3V24z M35,24c0,2.2-0.8,3-3,3h-4c-2.2,0-3-0.8-3-3V12c0-2.2,0.8-3,3-3h4
	c2.2,0,3,0.8,3,3V24z"/>
<path class="st2" d="M1,13h10v10H1V13z M13,13h10v10H13V13z M25,13h10v10H25V13z"/>
<path class="st3" d="M3.1,9C3,9.2,3,9.3,3,9.5C3,10.9,4.3,12,6,12s3-1.1,3-2.5C9,9.3,9,9.2,8.9,9H3.1z M15.1,9C15,9.2,15,9.3,15,9.5
	c0,1.4,1.3,2.5,3,2.5c1.7,0,3-1.1,3-2.5c0-0.2,0-0.3-0.1-0.5C20.9,9,15.1,9,15.1,9z M27.1,9C27,9.2,27,9.3,27,9.5
	c0,1.4,1.3,2.5,3,2.5s3-1.1,3-2.5c0-0.2,0-0.3-0.1-0.5H27.1z"/>
<path class="st4" d="M8.8,27C8.9,26.8,9,26.7,9,26.5C9,25.7,7.7,25,6,25s-3,0.7-3,1.5c0,0.2,0.1,0.3,0.2,0.5H8.8z M20.8,27
	c0.1-0.2,0.2-0.3,0.2-0.5c0-0.8-1.3-1.5-3-1.5c-1.7,0-3,0.7-3,1.5c0,0.2,0.1,0.3,0.2,0.5H20.8z M32.8,27c0.1-0.2,0.2-0.3,0.2-0.5
	c0-0.8-1.3-1.5-3-1.5s-3,0.7-3,1.5c0,0.2,0.1,0.3,0.2,0.5H32.8z"/>
</svg>
