<?xml version="1.0" encoding="utf-8"?>
<!-- Generator: Adobe Illustrator 24.1.0, SVG Export Plug-In . SVG Version: 6.00 Build 0)  -->
<svg version="1.1" id="Layer_1" xmlns="http://www.w3.org/2000/svg" xmlns:xlink="http://www.w3.org/1999/xlink" x="0px" y="0px"
	 viewBox="0 0 36 36" style="enable-background:new 0 0 36 36;" xml:space="preserve">
<style type="text/css">
	.st0{fill:#31373D;}
	.st1{fill:#292F33;}
	.st2{fill:#E6E7E8;}
</style>
<path class="st0" d="M32,5H4C1.8,5,0,6.8,0,9v18c0,2.2,1.8,4,4,4h28c2.2,0,4-1.8,4-4V9C36,6.8,34.2,5,32,5z"/>
<ellipse class="st1" cx="18" cy="15.5" rx="1" ry="0.5"/>
<path class="st2" d="M29,24.9c-0.5-0.2-1.1,0.1-1.3,0.6L20.9,23l6.8-2.5c0.2,0.5,0.8,0.8,1.3,0.6c0.5-0.2,0.8-0.8,0.6-1.3
	c-0.2-0.5-0.8-0.8-1.3-0.6c0.5-0.2,0.8-0.8,0.6-1.3c-0.2-0.5-0.8-0.8-1.3-0.6c-0.5,0.2-0.8,0.8-0.6,1.3L18,21.9l-9.1-3.3
	c0.2-0.5-0.1-1.1-0.6-1.3c-0.5-0.2-1.1,0.1-1.3,0.6c-0.2,0.5,0.1,1.1,0.6,1.3c-0.5-0.2-1.1,0.1-1.3,0.6c-0.2,0.5,0.1,1.1,0.6,1.3
	c0.5,0.2,1.1-0.1,1.3-0.6l6.8,2.5l-6.8,2.5C8.1,25,7.5,24.7,7,24.9c-0.5,0.2-0.8,0.8-0.6,1.3c0.2,0.5,0.8,0.8,1.3,0.6
	C7.1,27,6.9,27.5,7.1,28c0.2,0.5,0.8,0.8,1.3,0.6c0.5-0.2,0.8-0.8,0.6-1.3l9.1-3.3l9.1,3.3c-0.2,0.5,0.1,1.1,0.6,1.3
	c0.5,0.2,1.1-0.1,1.3-0.6c0.2-0.5-0.1-1.1-0.6-1.3c0.5,0.2,1.1-0.1,1.3-0.6C29.8,25.6,29.5,25.1,29,24.9z"/>
<path class="st2" d="M18,7c-4,0-6,3.2-6,6c0,1.4,0.8,2.4,2,3.1V18c0,0.6,0.4,1,1,1s1-0.4,1-1v-1.2c0.3,0.1,0.7,0.1,1,0.2V18
	c0,0.6,0.4,1,1,1s1-0.4,1-1v-1.1c0.3,0,0.7-0.1,1-0.2V18c0,0.6,0.4,1,1,1s1-0.4,1-1v-1.9c1.2-0.7,2-1.7,2-3.1C24,10.2,22,7,18,7z"/>
</svg>
