<?xml version="1.0" encoding="utf-8"?>
<!-- Generator: Adobe Illustrator 24.1.0, SVG Export Plug-In . SVG Version: 6.00 Build 0)  -->
<svg version="1.1" id="Layer_1" xmlns="http://www.w3.org/2000/svg" xmlns:xlink="http://www.w3.org/1999/xlink" x="0px" y="0px"
	 viewBox="0 0 36 36" style="enable-background:new 0 0 36 36;" xml:space="preserve">
<style type="text/css">
	.st0{fill:#77B255;}
	.st1{fill:#FFFFFF;}
</style>
<path class="st0" d="M36,32c0,2.2-1.8,4-4,4H4c-2.2,0-4-1.8-4-4V4c0-2.2,1.8-4,4-4h28c2.2,0,4,1.8,4,4V32z"/>
<path class="st1" d="M4,34c-0.7,0-1.3-0.3-1.7-1C1.7,32.1,2,30.9,3,30.3l5-3c0.5-0.3,1.1-0.4,1.7-0.2l4.7,1.6l3.1-3.9
	c0.5-0.7,1.5-0.9,2.3-0.6l3,1.2l2.3-7c0.1-0.3,0.3-0.6,0.5-0.8l5-5c0.8-0.8,2-0.8,2.8,0c0.8,0.8,0.8,2,0,2.8l-4.7,4.7l-2.9,8.6
	c-0.2,0.5-0.6,1-1.1,1.2c-0.5,0.2-1.1,0.2-1.6,0l-3.6-1.4l-3.1,3.8c-0.5,0.7-1.4,0.9-2.2,0.6l-5.1-1.7L5,33.7C4.7,33.9,4.4,34,4,34z
	"/>
</svg>
