<?xml version="1.0" encoding="utf-8"?>
<!-- Generator: Adobe Illustrator 24.1.0, SVG Export Plug-In . SVG Version: 6.00 Build 0)  -->
<svg version="1.1" id="Layer_1" xmlns="http://www.w3.org/2000/svg" xmlns:xlink="http://www.w3.org/1999/xlink" x="0px" y="0px"
	 viewBox="0 0 36 36" style="enable-background:new 0 0 36 36;" xml:space="preserve">
<style type="text/css">
	.st0{fill:#E5A157;}
	.st1{fill:#FFD983;}
	.st2{fill:#EDB980;}
	.st3{fill:#FFE8B6;}
	.st4{fill:#FFAC33;}
</style>
<path class="st0" d="M2,11c-2,0-2,2-2,2v21c0,0,0,2,2,2h32c2,0,2-2,2-2V13c0,0,0-2-2-2H2z"/>
<path class="st1" d="M2,6C0,6,0,8,0,8v20c0,0,0,2,2,2h32c2,0,2-2,2-2V8c0,0,0-2-2-2H2z"/>
<circle class="st2" cx="25" cy="18" r="6.5"/>
<path class="st0" d="M33,28.5H3c-0.8,0-1.5-0.7-1.5-1.5V9c0-0.8,0.7-1.5,1.5-1.5h30c0.8,0,1.5,0.7,1.5,1.5v18
	C34.5,27.8,33.8,28.5,33,28.5z M3,8.5C2.7,8.5,2.5,8.7,2.5,9v18c0,0.3,0.2,0.5,0.5,0.5h30c0.3,0,0.5-0.2,0.5-0.5V9
	c0-0.3-0.2-0.5-0.5-0.5H3z"/>
<path class="st3" d="M14,6h8v24.1h-8V6z"/>
<path class="st4" d="M14,30h8v6h-8V30z"/>
</svg>
