<?xml version="1.0" encoding="utf-8"?>
<!-- Generator: Adobe Illustrator 24.1.0, SVG Export Plug-In . SVG Version: 6.00 Build 0)  -->
<svg version="1.1" id="Layer_1" xmlns="http://www.w3.org/2000/svg" xmlns:xlink="http://www.w3.org/1999/xlink" x="0px" y="0px"
	 viewBox="0 0 36 36" style="enable-background:new 0 0 36 36;" xml:space="preserve">
<style type="text/css">
	.st0{fill:#FDD888;}
	.st1{fill:#BF6952;}
</style>
<path class="st0" d="M31.9,23.9C31.3,17.3,28,14,28,14l-6-8h-8l-6,8c0,0-1.4,1.4-2.6,4.3C3.4,18.9,2,20.8,2,23
	c0,1.4,0.6,2.7,1.6,3.7C3.2,27.4,3,28.1,3,29c0,2,1.1,3.6,2.8,4.5c1.3,1.9,3,2.5,4.2,2.5h16c1.4,0,3.4-0.8,4.7-3.3
	C32.6,32,34,30.2,34,28C34,26.3,33.2,24.8,31.9,23.9z M18,6c0.5,0,1.1-0.2,1.5-0.4C19.9,5.8,20.5,6,21,6c1.7,0,4-2.3,4-4
	c0,0,0-2-2-2c-0.8,0-1,1-2,1s-1-1-3-1s-2,1-3,1s-1.2-1-2-1c-2,0-2,2-2,2c0,1.7,2.3,4,4,4c0.5,0,1.1-0.2,1.5-0.4
	C16.9,5.8,17.5,6,18,6z"/>
<path class="st1" d="M24,6c0,0.6-0.4,1-1,1H13c-0.6,0-1-0.4-1-1s0.4-1,1-1h10C23.6,5,24,5.4,24,6z"/>
</svg>
