<?xml version="1.0" encoding="utf-8"?>
<!-- Generator: Adobe Illustrator 24.1.0, SVG Export Plug-In . SVG Version: 6.00 Build 0)  -->
<svg version="1.1" id="Layer_1" xmlns="http://www.w3.org/2000/svg" xmlns:xlink="http://www.w3.org/1999/xlink" x="0px" y="0px"
	 viewBox="0 0 36 36" style="enable-background:new 0 0 36 36;" xml:space="preserve">
<style type="text/css">
	.st0{fill:#292F33;}
	.st1{fill:#E1E8ED;}
	.st2{fill:#DD2E44;}
	.st3{fill:#99AAB5;}
</style>
<path class="st0" d="M35,32c0,2.2-1.8,4-4,4H5c-2.2,0-4-1.8-4-4V8c0-2.2,1.8-4,4-4h26c2.2,0,4,1.8,4,4V32z"/>
<path class="st1" d="M33,32c0,1.1-0.9,2-2,2H5c-1.1,0-2-0.9-2-2V12c0-1.1,0.9-2,2-2h26c1.1,0,2,0.9,2,2V32z"/>
<path class="st2" d="M33,16H3V8c0-1.1,0.9-2,2-2h26c1.1,0,2,0.9,2,2V16z"/>
<path class="st3" d="M11,7c0,0.6-0.4,1-1,1S9,7.6,9,7V1c0-0.6,0.4-1,1-1s1,0.4,1,1V7z M27,7c0,0.6-0.4,1-1,1s-1-0.4-1-1V1
	c0-0.6,0.4-1,1-1s1,0.4,1,1V7z"/>
</svg>
