<?xml version="1.0" encoding="utf-8"?>
<!-- Generator: Adobe Illustrator 24.1.0, SVG Export Plug-In . SVG Version: 6.00 Build 0)  -->
<svg version="1.1" id="Layer_1" xmlns="http://www.w3.org/2000/svg" xmlns:xlink="http://www.w3.org/1999/xlink" x="0px" y="0px"
	 viewBox="0 0 36 36" style="enable-background:new 0 0 36 36;" xml:space="preserve">
<style type="text/css">
	.st0{fill:#E0E7EC;}
	.st1{fill:#DD2F45;}
	.st2{fill:#F3AAB9;}
</style>
<path class="st0" d="M36,32c0,2.2-1.8,4-4,4H4c-2.2,0-4-1.8-4-4V9c0-2.2,1.8-4,4-4h28c2.2,0,4,1.8,4,4V32z"/>
<path class="st1" d="M34,0h-3.3C30.9,0.3,31,0.6,31,1c0,1.1-0.9,2-2,2s-2-0.9-2-2c0-0.4,0.1-0.7,0.3-1H8.7C8.9,0.3,9,0.6,9,1
	c0,1.1-0.9,2-2,2S5,2.1,5,1c0-0.4,0.1-0.7,0.3-1H2C0.9,0,0,0.9,0,2v11h36V2C36,0.9,35.1,0,34,0z"/>
<g>
	<circle class="st2" cx="33" cy="10" r="1"/>
	<circle class="st2" cx="33" cy="7" r="1"/>
	<circle class="st2" cx="30" cy="10" r="1"/>
	<circle class="st2" cx="30" cy="7" r="1"/>
	<circle class="st2" cx="27" cy="10" r="1"/>
	<circle class="st2" cx="27" cy="7" r="1"/>
</g>
</svg>
