<?xml version="1.0" encoding="utf-8"?>
<!-- Generator: Adobe Illustrator 24.1.0, SVG Export Plug-In . SVG Version: 6.00 Build 0)  -->
<svg version="1.1" id="Layer_1" xmlns="http://www.w3.org/2000/svg" xmlns:xlink="http://www.w3.org/1999/xlink" x="0px" y="0px"
	 viewBox="0 0 36 36" style="enable-background:new 0 0 36 36;" xml:space="preserve">
<style type="text/css">
	.st0{fill:#31373D;}
	.st1{fill:#C6E5B3;}
	.st2{fill:#66757F;}
	.st3{fill:#DD2E44;}
</style>
<path class="st0" d="M36,27c0,2.2-1.8,4-4,4H4c-2.2,0-4-1.8-4-4V9c0-2.2,1.8-4,4-4h28c2.2,0,4,1.8,4,4V27z"/>
<path class="st1" d="M34,21c0,1.1-0.9,2-2,2H4c-1.1,0-2-0.9-2-2V9c0-1.1,0.9-2,2-2h28c1.1,0,2,0.9,2,2V21z"/>
<path class="st2" d="M14,27c0,1.1-0.9,2-2,2H4c-1.1,0-2-0.9-2-2s0.9-2,2-2h8C13.1,25,14,25.9,14,27z M28,27c0,1.1-0.9,2-2,2h-8
	c-1.1,0-2-0.9-2-2s0.9-2,2-2h8C27.1,25,28,25.9,28,27z"/>
<circle class="st3" cx="32" cy="27" r="2"/>
</svg>
