<?xml version="1.0" encoding="utf-8"?>
<!-- Generator: Adobe Illustrator 24.1.0, SVG Export Plug-In . SVG Version: 6.00 Build 0)  -->
<svg version="1.1" id="Layer_1" xmlns="http://www.w3.org/2000/svg" xmlns:xlink="http://www.w3.org/1999/xlink" x="0px" y="0px"
	 viewBox="0 0 36 36" style="enable-background:new 0 0 36 36;" xml:space="preserve">
<style type="text/css">
	.st0{fill:#F4900C;}
	.st1{fill:#FFFFFF;}
</style>
<path class="st0" d="M36,32c0,4-4,4-4,4H4c-4,0-4-4-4-4V4c0-4,4-4,4-4h28c0,0,4,0,4,4V32z"/>
<path class="st1" d="M19,24v4H5V8h14v2h2V6c0-3-3-3-3-3H6C3,3,3,6,3,6v24c0,3,3,3,3,3h12c3,0,3-3,3-3v-6H19z"/>
</svg>
