<?xml version="1.0" encoding="utf-8"?>
<!-- Generator: Adobe Illustrator 24.1.0, SVG Export Plug-In . SVG Version: 6.00 Build 0)  -->
<svg version="1.1" id="Layer_1" xmlns="http://www.w3.org/2000/svg" xmlns:xlink="http://www.w3.org/1999/xlink" x="0px" y="0px"
	 viewBox="0 0 36 36" style="enable-background:new 0 0 36 36;" xml:space="preserve">
<style type="text/css">
	.st0{fill:#FFCC4D;}
</style>
<path class="st0" d="M20.8,34.6c-1.5,1.5-4,1.5-5.5,0L1.4,20.8c-1.5-1.5-1.5-4,0-5.5L15.2,1.4c1.5-1.5,4-1.5,5.5,0l13.8,13.8
	c1.5,1.5,1.5,4,0,5.5L20.8,34.6z"/>
<path d="M19.5,32.9c-0.8,0.8-2.2,0.8-3,0L3.1,19.5c-0.8-0.8-0.8-2.2,0-3L16.5,3.1c0.8-0.8,2.2-0.8,3,0l13.4,13.4
	c0.8,0.8,0.8,2.2,0,3L19.5,32.9z"/>
<path class="st0" d="M18.7,30.7c-0.4,0.4-1.1,0.4-1.5,0L5.3,18.7c-0.4-0.4-0.4-1.1,0-1.5L17.3,5.3c0.4-0.4,1.1-0.4,1.5,0l11.9,11.9
	c0.4,0.4,0.4,1.1,0,1.5L18.7,30.7z"/>
</svg>
