<?xml version="1.0" encoding="utf-8"?>
<!-- Generator: Adobe Illustrator 24.1.0, SVG Export Plug-In . SVG Version: 6.00 Build 0)  -->
<svg version="1.1" id="Layer_1" xmlns="http://www.w3.org/2000/svg" xmlns:xlink="http://www.w3.org/1999/xlink" x="0px" y="0px"
	 viewBox="0 0 36 36" style="enable-background:new 0 0 36 36;" xml:space="preserve">
<style type="text/css">
	.st0{fill:#292F33;}
	.st1{fill:#99AAB5;}
	.st2{fill:#AF7E57;}
	.st3{fill:#9B6A49;}
	.st4{fill:#60352A;}
	.st5{fill:#BE1931;}
</style>
<path class="st0" d="M28,29c-3-0.1-17-0.1-20,0c-6.4,0.1-5,7-5,7h30C33,36,34.4,29.1,28,29z"/>
<path class="st1" d="M18.8,34.8L20,33l-2-1l-2,1l1.2,1.8L10,33l2,3h12l2-3L18.8,34.8z"/>
<path class="st2" d="M14.3,29.5c1.5,1.1,3,1,3.7,1s2.2,0.1,3.7-1v-5.7h-7.3V29.5z"/>
<path class="st3" d="M14.3,25.2c1,1.2,2.3,1.5,3.7,1.5c1.4,0,2.6-0.3,3.7-1.5v-2.9h-7.3V25.2z"/>
<path class="st2" d="M9.7,15.7c0-5.8,3.7-10.6,8.2-10.6c4.5,0,8.2,4.7,8.2,10.6c0,5.8-3.7,10.3-8.2,10.3C13.4,26,9.7,21.6,9.7,15.7"
	/>
<path class="st4" d="M27,5c2,0,3,1,3,1c-1-3-5-3-5-3c-0.9-2.2-2.6-2.2-2.6-2.2c0.9,0.7,0.9,1.6,0.9,1.6l0,0C22,1.6,19,0.3,14,1
	c0,0,2,0,3,1c0,0-7-1-10,4c0,0,1.5-1.5,3.8-1.2c-1.7,1.1-3.1,2.9-3.4,5c-0.4,3.4,0.5,5,0.9,7.6c0.4,2.9,2,3.9,3.4,4.3
	c1.9,2.5,3.9,2.4,7.3,2.4c4.7,0,7.7-2.3,9.1-6.3c0.5,0.7,0.4,1.3,0.4,1.3s1.3-3.8,1-8C29.1,6.8,27,5,27,5z"/>
<path class="st2" d="M25.5,12.5c-0.6-0.9-1.5-1.6-3.2-1.8c0.7,0.3,1.3,1.4,1.4,2s0.2,1.1-0.4,0.5c-2.1-2.4-4.5-1.4-6.8-2.9
	c-1.6-1-2.1-2.1-2.1-2.1s-0.2,1.5-2.6,3c-0.7,0.4-1.5,1.4-2,2.9c-0.3,1-0.2,2-0.2,3.5c0,4.6,3.8,8.5,8.5,8.5s8.5-3.9,8.5-8.5
	C26.5,14.6,26.2,13.5,25.5,12.5z"/>
<path class="st5" d="M31.6,28.5c-0.8-1.3-4.9-1.5-7.8-1.5c-1,0-2.9,1.9-5.8,1.9S13.1,27,12.2,27c-2.9,0-7,0.2-7.8,1.5
	C2.9,30.9,6.3,32,8.2,32c1.9,0,5.6-1,9.8-1s7.8,1,9.8,1C29.7,32,33.1,30.9,31.6,28.5z"/>
<path class="st1" d="M9.4,26.2c0.4-0.1,1.4,1.4,1.3,1.7s-2.2,0.5-2.3,0.2C8.3,28,9,26.3,9.4,26.2z M4.8,29.5
	c0.2,0.3,3.4-0.1,3.4-0.5c0-0.4-1.7-2.5-2.2-2.4C5.5,26.8,4.6,29.2,4.8,29.5z M27.6,28.2c-0.1,0.2-2.3,0-2.3-0.2
	c0-0.3,1-1.8,1.3-1.7C27,26.3,27.7,28,27.6,28.2z M29.9,26.7c-0.5-0.1-2.2,1.9-2.2,2.4c0,0.4,3.2,0.8,3.4,0.5
	C31.4,29.2,30.5,26.8,29.9,26.7z"/>
</svg>
