<?xml version="1.0" encoding="utf-8"?>
<!-- Generator: Adobe Illustrator 24.1.0, SVG Export Plug-In . SVG Version: 6.00 Build 0)  -->
<svg version="1.1" id="Layer_1" xmlns="http://www.w3.org/2000/svg" xmlns:xlink="http://www.w3.org/1999/xlink" x="0px" y="0px"
	 viewBox="0 0 36 36" style="enable-background:new 0 0 36 36;" xml:space="preserve">
<style type="text/css">
	.st0{fill:#292F33;}
	.st1{fill:#99AAB5;}
	.st2{fill:#0B0200;}
	.st3{fill:#7C533E;}
	.st4{fill:#664131;}
	.st5{fill:#BE1931;}
</style>
<path class="st0" d="M28,29H8c-3,0-4,7-4,7h28C32,36,31,29,28,29z"/>
<path class="st1" d="M12,36l-2-3l8,2l8-2l-2,3H12z"/>
<path class="st1" d="M18,32l2,1l-2,3l-2-3L18,32z"/>
<path class="st2" d="M18,5c4,0,5.3,0.4,5.3,0.4S23.3,4,22,3c0,0,3,1,3,3c0,0,4,0,5,3c0,0-1-1-3-1c0,0,2.1,1.8,2.4,6.1
	c0.3,4.2-1,8-1,8s0.1-0.9-0.9-1.9c0,0-0.3,2.8-3,4.8c0,0-1-1.6-3-2.6S16,21,14,23l-3,3c0,0-4-4-4-10S12,5,18,5z"/>
<path class="st3" d="M14.3,29.5c1.5,1.1,3,1,3.7,1s2.2,0.1,3.7-1v-5.7h-7.3V29.5z"/>
<path class="st4" d="M14.3,25.2c1,1.2,2.3,1.5,3.7,1.5c1.4,0,2.6-0.3,3.7-1.5v-2.9h-7.3V25.2z"/>
<path class="st3" d="M9.7,15.7c0-5.8,3.7-10.6,8.2-10.6c4.5,0,8.2,4.7,8.2,10.6c0,5.8-3.7,10.3-8.2,10.3C13.4,26,9.7,21.6,9.7,15.7"
	/>
<path class="st2" d="M21,10c0,0,1,4,3,6s1,6,1,6s2-3,2-7s-3-9-3-9s-3-3-10-2c0,0,2,0,3,1c0,0-7-1-10,4c0,0,2-2,5-1c0,0-2,1-3,5
	s1,8,1,8S13,10,21,10z"/>
<path class="st5" d="M30.6,29.5c-0.8-1.3-3.9-2.5-6.8-2.5c-1,0-2.9,1.9-5.8,1.9S13.1,27,12.2,27c-2.9,0-6,1.2-6.8,2.5
	C3.9,31.9,6.3,32,8.2,32c1.9,0,5.6-1,9.8-1s7.8,1,9.8,1C29.7,32,32.1,31.9,30.6,29.5z"/>
<path class="st1" d="M10.4,26.2c0.4-0.1,1.4,1.4,1.3,1.7s-2.2,0.5-2.3,0.2C9.3,28,10,26.3,10.4,26.2z M5.8,29.5
	c0.2,0.3,3.4-0.1,3.4-0.5c0-0.4-1.7-2.5-2.2-2.4C6.5,26.8,5.6,29.2,5.8,29.5z M26.6,28.2c-0.1,0.2-2.3,0-2.3-0.2
	c0-0.3,1-1.8,1.3-1.7C26,26.3,26.7,28,26.6,28.2z M28.9,26.7c-0.5-0.1-2.2,1.9-2.2,2.4c0,0.4,3.2,0.8,3.4,0.5
	C30.4,29.2,29.5,26.8,28.9,26.7z"/>
</svg>
