<?xml version="1.0" encoding="utf-8"?>
<!-- Generator: Adobe Illustrator 24.1.0, SVG Export Plug-In . SVG Version: 6.00 Build 0)  -->
<svg version="1.1" id="Layer_1" xmlns="http://www.w3.org/2000/svg" xmlns:xlink="http://www.w3.org/1999/xlink" x="0px" y="0px"
	 viewBox="0 0 36 36" style="enable-background:new 0 0 36 36;" xml:space="preserve">
<style type="text/css">
	.st0{fill:#A0041E;}
	.st1{fill:#55ACEE;}
	.st2{fill:#AF7E57;}
	.st3{fill:#9B6A49;}
	.st4{fill:#60352A;}
	.st5{fill:#DD2E44;}
</style>
<path class="st0" d="M18,36h17c0,0-0.1-3.2-1.6-5.6C29.5,24.2,18,31,18,31V36z"/>
<path class="st0" d="M18,36H1c0,0,0.1-3.2,1.6-5.6C6.5,24.2,18,31,18,31V36z"/>
<path class="st1" d="M28,29H8c-3,0-5,3.5-4,7h28C32.9,32.5,31,29,28,29z"/>
<path class="st2" d="M14.3,30c1.5,1.1,3,1,3.7,1s2.2,0.1,3.7-1v-5.7h-7.3V30z"/>
<path class="st3" d="M14.3,25.2c1,1.2,2.3,1.5,3.7,1.5c1.4,0,2.6-0.3,3.7-1.5v-2.9h-7.3V25.2z"/>
<path class="st4" d="M21.7,2.6c-1.9-0.6-6.4-0.4-7.5,1c-2.9,0.1-6.3,2.7-6.8,6.2c-0.4,3.4,0.5,5,0.9,7.6c0.4,2.9,2,3.9,3.4,4.3
	c1.9,2.5,3.9,2.4,7.3,2.4c6.6,0,9.7-4.4,10-11.9C29.1,7.6,26.5,4.2,21.7,2.6z"/>
<path class="st2" d="M25.5,12.5c-0.6-0.9-1.5-1.6-3.2-1.8c0.7,0.3,1.3,1.4,1.4,2s0.2,1.1-0.4,0.5c-2.1-2.4-4.5-1.4-6.8-2.9
	c-1.6-1-2.1-2.1-2.1-2.1s-0.2,1.5-2.6,3c-0.7,0.4-1.5,1.4-2,2.9c-0.3,1-0.2,2-0.2,3.5c0,4.6,3.8,8.5,8.5,8.5s8.5-3.9,8.5-8.5
	C26.5,14.6,26.2,13.5,25.5,12.5z"/>
<path class="st5" d="M24.1,36c-1.2-1.2-3.5-2-6.1-2s-4.8,0.8-6.1,2H24.1z M18,31c0,0-5,0-7,1c0,0-1.3-3-3.7-3.3
	c-3-0.4-4.7,1.7-4.7,1.7s0.9-1.8,2.9-2.8c2-1,4,0.1,4,0.1s1.2-0.7,2.2-0.7c1.1,0,2.1,0.1,2.7,0.9C15.1,28.9,17,31,18,31z"/>
<path class="st5" d="M18,31c0,0,5,0,7,1c0,0,1.3-3,3.7-3.3c3-0.4,4.7,1.7,4.7,1.7s-0.9-1.8-2.9-2.8c-2-1-4,0.1-4,0.1
	S25.3,27,24.3,27c-1.1,0-2.1,0.1-2.7,0.9C20.9,28.9,19,31,18,31z"/>
</svg>
