<?xml version="1.0" encoding="utf-8"?>
<!-- Generator: Adobe Illustrator 24.1.0, SVG Export Plug-In . SVG Version: 6.00 Build 0)  -->
<svg version="1.1" id="Layer_1" xmlns="http://www.w3.org/2000/svg" xmlns:xlink="http://www.w3.org/1999/xlink" x="0px" y="0px"
	 viewBox="0 0 36 36" style="enable-background:new 0 0 36 36;" xml:space="preserve">
<style type="text/css">
	.st0{fill:#292F33;}
	.st1{fill:#99AAB5;}
	.st2{fill:#D4AB88;}
	.st3{fill:#CC9B7A;}
	.st4{fill:#963B22;}
	.st5{fill:#BE1931;}
</style>
<path class="st0" d="M32,29c-2.2-1.1-25.8-1.1-28,0c-4,2-2,7-2,7h32C34,36,36,31,32,29z"/>
<path class="st1" d="M12,36l-2-3l8,2l8-2l-2,3H12z"/>
<path class="st1" d="M18,32l2,1l-2,3l-2-3L18,32z"/>
<path class="st2" d="M13.6,28.1c1.7,1.3,2.8,2,4.4,2s2.6-0.7,4.4-2v-3.8h-8.7L13.6,28.1L13.6,28.1z"/>
<path class="st3" d="M13.6,25.5c0.4,2,2.7,2.2,4.4,2.2c1.6,0,4-0.2,4.4-2.2v-3h-8.7L13.6,25.5L13.6,25.5z"/>
<path class="st2" d="M11.4,15.9c0,1.4-0.7,2.6-1.6,2.6s-1.6-1.2-1.6-2.6s0.7-2.6,1.6-2.6C10.7,13.3,11.4,14.5,11.4,15.9 M27.8,15.9
	c0,1.4-0.7,2.6-1.6,2.6c-0.9,0-1.6-1.2-1.6-2.6s0.7-2.6,1.6-2.6C27.1,13.3,27.8,14.5,27.8,15.9"/>
<path class="st2" d="M18,7c-5,0-8,2-8,5s0,9,2,12s4,3,6,3s4,0,6-3s2-9,2-12S23,7,18,7z"/>
<path class="st4" d="M18.8,3.1c0.9,0.1,2.5-1.3,4.2-0.7c-1,0.8,0.3,1.9,1.1,2.5c0.5,0.3,2.8,0.3,3.1,0.7c-1.7,0.8-0.9,1.8-0.6,2.5
	C27,9,27.2,10,27.2,11c0,3.6-0.7,5-1.4,3.6c-0.7-1.4-1.4-3.4-1.4-3.4s-4.3,0.5-5.7-1l0.5,1.8c0,0-1.4-0.3-2.9-2.3l-0.5,1.8
	c0,0-1-0.5-2.7-2c0,0-2.1,1.4-2.8,5c-0.2,1-1.4,0-1.4-3.6c0-1.2,0-2.7,0.5-3.9c0.3-0.9,1.5-1.7,0-3.1c1.6-0.7,3.3,0.7,4.3,0.8
	c0.5-0.9,2.9-3.4,3.8-3.6C17.4,2.3,17.8,3,18.8,3.1z"/>
<path class="st5" d="M33,29c-0.8-1.3-6-2-9-2c-1,0-3,3.1-6,3.1S13,27,12,27c-3,0-8.2,0.7-9,2c-1.5,2.4,4,3,6,3s4.8-1,9-1s7,1,9,1
	S34.5,31.4,33,29z"/>
<path class="st1" d="M5.8,25.9c0.7-0.1,2.5,2.7,2.4,3.2c-0.1,0.5-4.2,0.6-4.4,0.2S5.1,26,5.8,25.9z M8.1,27.6
	c0.2,0.3,3.2,0.1,3.3-0.2c0.1-0.3-1.3-2.4-1.8-2.3C9.1,25.2,8,27.4,8.1,27.6z M32.2,29.3c-0.2,0.4-4.4,0.2-4.4-0.2
	c-0.1-0.5,1.8-3.2,2.5-3.2C30.9,26,32.4,28.9,32.2,29.3z M26.4,25.1c-0.5-0.1-1.9,2-1.8,2.3c0.1,0.3,3.1,0.5,3.3,0.2
	C28,27.4,26.9,25.1,26.4,25.1z"/>
</svg>
