<?xml version="1.0" encoding="utf-8"?>
<!-- Generator: Adobe Illustrator 24.1.0, SVG Export Plug-In . SVG Version: 6.00 Build 0)  -->
<svg version="1.1" id="Layer_1" xmlns="http://www.w3.org/2000/svg" xmlns:xlink="http://www.w3.org/1999/xlink" x="0px" y="0px"
	 viewBox="0 0 36 36" style="enable-background:new 0 0 36 36;" xml:space="preserve">
<style type="text/css">
	.st0{fill:#A0041E;}
	.st1{fill:#55ACEE;}
	.st2{fill:#DD2E44;}
	.st3{fill:#D4AB88;}
	.st4{fill:#CC9B7A;}
	.st5{fill:#963B22;}
</style>
<path class="st0" d="M33,28.1C29.2,25.4,18,31,18,31c0,0-11.2-5.6-15-2.9c-3,2-3,7.9-3,7.9h36C36,36,36,30.1,33,28.1z"/>
<path class="st1" d="M32,29c-2.2-1.1-4,0-4,0l-10-1L8,29c0,0-1.8-1.1-4,0c-4,2-2,7-2,7h32C34,36,36,31,32,29z"/>
<path class="st2" d="M24.1,36c-1.2-1.2-3.5-2-6.1-2s-4.8,0.8-6.1,2H24.1z"/>
<path class="st3" d="M13.6,28.5c1.7,1.3,2.8,2,4.4,2c1.5,0,2.6-0.7,4.4-2v-4.2h-8.7L13.6,28.5L13.6,28.5z"/>
<path class="st2" d="M30.5,27c-2-0.3-3.6,0.5-3.6,0.5S26,27,25,26.9c-1.5,0-2.4,0.9-3,1.8c-0.7,1-3,1.3-4,1.3s-3.3-0.3-4-1.3
	c-0.6-0.8-1.5-1.8-3-1.8c-1,0-1.8,0.6-1.8,0.6S7.5,26.7,5.5,27c-1.3,0.2-2.4,0.8-2.8,1.2c2.8-1.7,4.8-0.2,6.1,0.6
	C10.1,29.8,11,32,11,32c2-1,7-1,7-1s5,0,7,1c0,0,0.9-2.2,2.2-3.1c1.3-0.9,3.2-2.3,6.1-0.6C32.8,27.8,31.8,27.2,30.5,27z"/>
<path class="st4" d="M13.6,25.5c0.4,2,2.7,2.2,4.4,2.2c1.6,0,4-0.2,4.4-2.2v-3h-8.7L13.6,25.5L13.6,25.5z"/>
<path class="st3" d="M11.4,15.9c0,1.4-0.7,2.6-1.6,2.6s-1.6-1.2-1.6-2.6s0.7-2.6,1.6-2.6C10.7,13.3,11.4,14.5,11.4,15.9 M27.8,15.9
	c0,1.4-0.7,2.6-1.6,2.6c-0.9,0-1.6-1.2-1.6-2.6s0.7-2.6,1.6-2.6C27.1,13.3,27.8,14.5,27.8,15.9"/>
<path class="st3" d="M18,7c-5,0-8,2-8,5s0,9,2,12s4,3,6,3s4,0,6-3s2-9,2-12S23,7,18,7z"/>
<path class="st5" d="M18.8,3.1c6,0.5,8.4,4.2,8.4,7.9c0,3.6-0.7,5-1.4,3.6c-0.7-1.4-1.4-3.4-1.4-3.4s-4.3,0.5-5.7-1
	c0,0,2.1,4.3-2.1,0c0,0,0.7,2.9-3.5-0.7c0,0-2.1,1.4-2.8,5c-0.2,1-1.4,0-1.4-3.6c0-2.7,0.2-6.7,4.9-6.2C14.8,3.2,16.7,2.9,18.8,3.1z
	"/>
</svg>
