<?xml version="1.0" encoding="utf-8"?>
<!-- Generator: Adobe Illustrator 24.1.0, SVG Export Plug-In . SVG Version: 6.00 Build 0)  -->
<svg version="1.1" id="Layer_1" xmlns="http://www.w3.org/2000/svg" xmlns:xlink="http://www.w3.org/1999/xlink" x="0px" y="0px"
	 viewBox="0 0 36 36" style="enable-background:new 0 0 36 36;" xml:space="preserve">
<style type="text/css">
	.st0{fill:#60352A;}
	.st1{fill:#A0041E;}
	.st2{fill:#55ACEE;}
	.st3{fill:#DD2E44;}
	.st4{fill:#AF7E57;}
	.st5{fill:#9B6A49;}
</style>
<path class="st0" d="M8.1,17c0,2.8,2.9,8,9.8,8s9.7-4.8,9.7-9.1c0-1.1-4-3.6-9.6-3.6S8.1,14.9,8.1,17z"/>
<path class="st1" d="M29.6,28.4C26.6,26.4,18,31,18,31s-8.6-4.6-11.6-2.6C3.4,30.4,1,36,1,36h34C35,36,32.6,30.4,29.6,28.4z"/>
<path class="st2" d="M28,29H8c-3,0-4,7-4,7h28C32,36,31,29,28,29z"/>
<path class="st3" d="M24.1,36c-1.2-1.2-3.5-2-6.1-2s-4.8,0.8-6.1,2H24.1z"/>
<path class="st4" d="M14.3,30c1.5,1.1,3.7,1,3.7,1s2.2,0.1,3.7-1v-5.7h-7.3V30z"/>
<path class="st3" d="M14.4,27.9c-0.6-0.8-1.6-0.9-2.7-0.9c-1,0-1.7,0.8-1.7,0.8s-1.5-0.8-3.1,0c-1.8,0.9-2.9,3-2.9,3S6,29,8,29
	s3,3,3,3c2-1,7-1,7-1C17,31,15.1,28.9,14.4,27.9z M29.1,27.7c-1.6-0.7-3.1,0-3.1,0S25.3,27,24.3,27c-1.1,0-2.1,0.1-2.7,0.9
	C20.9,28.9,19,31,18,31c0,0,5,0,7,1c0,0,1-3,3-3s4,1.7,4,1.7S30.9,28.6,29.1,27.7z"/>
<path class="st5" d="M14.3,25.2c1,1.2,2.3,1.5,3.7,1.5c1.4,0,2.6-0.3,3.7-1.5v-2.9h-7.3V25.2z"/>
<path class="st4" d="M9.7,15.7c0,5.8,3.7,10.3,8.2,10.3c4.5,0,8.2-4.5,8.2-10.3c0-5.8-3.7-10.6-8.2-10.6C13.4,5.2,9.7,9.9,9.7,15.7"
	/>
<path class="st0" d="M13.6,5.9C13.6,5.9,11,4,8,6s-1,6-1,6s-2,1-2,3s2,3,2,3s-1,1-1,2s2,2,2,3s-2,2-2,2s4,0,4-2s-2-8,4-12
	c0,0,3,1,5,1s7,1,7,4v7c0,1,2,2,3,2c0,0-1.1-1-1.1-2s2.5-3,2.5-5S29,15,29,15s2-3,1-5s-3.6-2.4-3.6-2.4s0-3.1-3-4.1s-5.9,1-5.9,1
	S16,3.2,14.7,3.7C13.4,4.2,13.6,5.9,13.6,5.9z"/>
</svg>
