<?xml version="1.0" encoding="utf-8"?>
<!-- Generator: Adobe Illustrator 24.1.0, SVG Export Plug-In . SVG Version: 6.00 Build 0)  -->
<svg version="1.1" id="Layer_1" xmlns="http://www.w3.org/2000/svg" xmlns:xlink="http://www.w3.org/1999/xlink" x="0px" y="0px"
	 viewBox="0 0 36 36" style="enable-background:new 0 0 36 36;" xml:space="preserve">
<style type="text/css">
	.st0{fill:#FA743E;}
	.st1{fill:#0B0200;}
	.st2{fill:#7C533E;}
	.st3{fill:#664131;}
	.st4{fill:#DD551F;}
	.st5{fill:#5DADEC;}
</style>
<path class="st0" d="M35,36v-2c0-3.3-2.7-6-6-6H15c-3.3,0-6,2.7-6,6v2H35z"/>
<path class="st1" d="M25.9,2.3c-2-0.7-6.8-0.5-8,1.1c-3.1,0.1-6.7,2.9-7.2,6.5c-0.5,3.6,0.6,5.3,1,8.1c0.4,3.1,2.2,4.1,3.6,4.5
	c2,2.7,4.1,2.5,7.7,2.5c7,0,10.3-4.7,10.6-12.6C33.8,7.5,31,3.9,25.9,2.3z"/>
<path class="st2" d="M19,23v6c0,1.7,1.3,3,3,3s3-1.3,3-3v-6H19z"/>
<path class="st3" d="M18.5,26c1.1,1.2,2,1.5,3.5,1.5c1.4,0,2.4-0.3,3.5-1.5v-3.5h-7L18.5,26L18.5,26z"/>
<path class="st2" d="M29.9,12.7c-0.7-0.9-1.5-1.7-3.4-2c0.7,0.3,1.4,1.5,1.5,2.1s0.2,1.1-0.4,0.5c-2.3-2.5-4.7-1.5-7.2-3
	C18.7,9.2,18.2,8,18.2,8s-0.2,1.6-2.8,3.2c-0.7,0.5-1.6,1.5-2.1,3C12.9,15.3,13,16.3,13,18c0,4.9,4,9,9,9s9-4.1,9-9
	C31,15,30.7,13.8,29.9,12.7z"/>
<path class="st4" d="M8,28.6V36h1l0.3-7.4H8z"/>
<path class="st0" d="M4.3,28.1L3,36h5l0.7-7.6L4.3,28.1z"/>
<path class="st2" d="M6.8,22.3c0.9-0.9,3.6-3,4.2-3.6c0.7-0.7,1.5,0.1,1.1,0.9s-3.1,3.8-3.1,3.8s1.6,0.5,1.9,0.9s1,3.1,0.4,3.5
	s-1.5,0.1-1.5,0.1s-1,2.4-3.5,2.3c-1-0.1-2.1-1-2-2.5c0.1-1.5,0.9-3,1.2-3.8C5.8,22.9,6.8,22.3,6.8,22.3z"/>
<path class="st5" d="M6.1,20.7c0,0-0.1,0-0.1,0c-2.4-0.7-2.9-3.6-2.9-3.7c0-0.3,0.2-0.5,0.4-0.6c0.3,0,0.5,0.1,0.6,0.4
	c0,0,0.4,2.3,2.2,2.9c0.3,0.1,0.4,0.4,0.3,0.6C6.5,20.6,6.3,20.7,6.1,20.7z M5,22.7c0,0-0.1,0-0.1,0c-3.6-1.1-4.5-5.1-4.6-5.3
	c-0.1-0.3,0.1-0.5,0.4-0.6c0.3-0.1,0.5,0.1,0.6,0.4c0,0,0.9,3.6,3.9,4.5c0.3,0.1,0.4,0.4,0.3,0.6C5.4,22.6,5.2,22.7,5,22.7z"/>
</svg>
