<?xml version="1.0" encoding="utf-8"?>
<!-- Generator: Adobe Illustrator 24.1.0, SVG Export Plug-In . SVG Version: 6.00 Build 0)  -->
<svg version="1.1" id="Layer_1" xmlns="http://www.w3.org/2000/svg" xmlns:xlink="http://www.w3.org/1999/xlink" x="0px" y="0px"
	 viewBox="0 0 36 36" style="enable-background:new 0 0 36 36;" xml:space="preserve">
<style type="text/css">
	.st0{fill:#4289C1;}
	.st1{fill:#F7DECE;}
	.st2{fill:#EEC2AD;}
	.st3{fill:#292F33;}
	.st4{fill:#2A6797;}
	.st5{fill:#5DADEC;}
</style>
<path class="st0" d="M35,36v-2c0-3.3-2.7-6-6-6H13c-3.3,0-6,2.7-6,6v2H35z"/>
<path class="st1" d="M16.6,28.1c0,0.7,2,2,4.4,2s4.4-1.2,4.4-2v-3.8h-8.7L16.6,28.1L16.6,28.1z"/>
<path class="st2" d="M16.6,26c1.2,1.4,2.7,1.7,4.4,1.7c1.6,0,3.1-0.4,4.4-1.7v-3.5h-8.7L16.6,26L16.6,26z"/>
<path class="st1" d="M14.4,15.9c0,1.4-0.7,2.6-1.6,2.6s-1.6-1.2-1.6-2.6s0.7-2.6,1.6-2.6C13.7,13.3,14.4,14.5,14.4,15.9 M30.8,15.9
	c0,1.4-0.7,2.6-1.6,2.6c-0.9,0-1.6-1.2-1.6-2.6s0.7-2.6,1.6-2.6C30.1,13.3,30.8,14.5,30.8,15.9"/>
<path class="st1" d="M12.5,17c0-5.6,3.8-10.1,8.5-10.1c4.7,0,8.5,4.5,8.5,10.1S25.7,27.1,21,27.1C16.3,27.1,12.5,22.5,12.5,17"/>
<path class="st3" d="M21,3.5c5.6,0,9.2,4.2,9.2,7.6s-0.7,4.9-1.4,3.5l-1.4-2.8c0,0-4.2,0-5.6-1.4c0,0,2.1,4.2-2.1,0
	c0,0,0.7,2.8-3.5-0.7c0,0-2.1,1.4-2.8,4.9c-0.2,1-1.4,0-1.4-3.5C11.8,7.6,14.6,3.5,21,3.5"/>
<path class="st4" d="M8,28.6V36h1l0.3-7.4H8z"/>
<path class="st0" d="M4.3,28.1L3,36h5l0.7-7.6L4.3,28.1z"/>
<path class="st1" d="M6.8,22.3c0.9-0.9,3.6-3,4.2-3.6c0.7-0.7,1.5,0.1,1.1,0.9s-3.1,3.8-3.1,3.8s1.6,0.5,1.9,0.9s1,3.1,0.4,3.5
	s-1.5,0.1-1.5,0.1s-1,2.4-3.5,2.3c-1-0.1-2.1-1-2-2.5c0.1-1.5,0.9-3,1.2-3.8C5.8,22.9,6.8,22.3,6.8,22.3z"/>
<path class="st5" d="M6.1,20.7c0,0-0.1,0-0.1,0c-2.4-0.7-2.9-3.6-2.9-3.7c0-0.3,0.2-0.5,0.4-0.6c0.3,0,0.5,0.1,0.6,0.4
	c0,0,0.4,2.3,2.2,2.9c0.3,0.1,0.4,0.4,0.3,0.6C6.5,20.6,6.3,20.7,6.1,20.7z M5,22.7c0,0-0.1,0-0.1,0c-3.6-1.1-4.5-5.1-4.6-5.3
	c-0.1-0.3,0.1-0.5,0.4-0.6c0.3-0.1,0.5,0.1,0.6,0.4c0,0,0.9,3.6,3.9,4.5c0.3,0.1,0.4,0.4,0.3,0.6C5.4,22.6,5.2,22.7,5,22.7z"/>
</svg>
