<?xml version="1.0" encoding="utf-8"?>
<!-- Generator: Adobe Illustrator 24.1.0, SVG Export Plug-In . SVG Version: 6.00 Build 0)  -->
<svg version="1.1" id="Layer_1" xmlns="http://www.w3.org/2000/svg" xmlns:xlink="http://www.w3.org/1999/xlink" x="0px" y="0px"
	 viewBox="0 0 36 36" style="enable-background:new 0 0 36 36;" xml:space="preserve">
<style type="text/css">
	.st0{fill:#9268CA;}
	.st1{fill:#963B22;}
	.st2{fill:#D4AB88;}
	.st3{fill:#CC9B7A;}
	.st4{fill:#7450A8;}
	.st5{fill:#5DADEC;}
</style>
<path class="st0" d="M33.9,36v-3.5c0-3.3-3.7-5.5-7-5.5h-12c-3.3,0-7,2.2-7,5.5V36H33.9z"/>
<path class="st1" d="M20.9,5.1C25,5.1,31.8,7.1,31.8,16c0,8.9,0,10.9-2.1,10.9s-4.8-2.1-8.9-2.1S14.1,27,12,27
	C9.7,27,9.9,18.8,9.9,16C9.9,7.1,16.8,5.1,20.9,5.1"/>
<path class="st2" d="M21,29.4c2,0,3.6-1.5,3.6-2.5v-3.1h-7.3v3C17.3,28.1,19,29.4,21,29.4z"/>
<path class="st3" d="M17.3,25.2c1,1.2,2.3,1.5,3.7,1.5c1.4,0,2.6-0.3,3.7-1.5v-2.9h-7.3V25.2z"/>
<path class="st2" d="M12.7,15.7c0-5.8,3.7-10.6,8.2-10.6c4.5,0,8.2,4.7,8.2,10.6c0,5.8-3.7,10.3-8.2,10.3
	C16.4,26,12.7,21.6,12.7,15.7"/>
<path class="st1" d="M10.7,19c0-1,0-0.2,0-0.5c0-3.4,2.1,0.5,2.1-1.9c0-2.4,1.4-2.7,2.7-4.1c0.7-0.7,2.1-2,2.1-2s3.4,2.1,6.2,2.1
	c2.7,0,5.5,1.4,5.5,4.1c0,2.7,2.1-1.6,2.1,1.8c0,0.2,0-0.5,0,0.5h0.7c0-2,0-1.9,0-3.2c0-8.9-6.8-11.7-10.9-11.7
	c-4.1,0-10.9,2.7-10.9,11.6c0,0.8,0,1.3,0,3.3C9.9,19,10.7,19,10.7,19z"/>
<path class="st4" d="M8,28.6V36h1l0.3-7.4H8z"/>
<path class="st0" d="M4.3,28.1L3,36h5l0.7-7.6L4.3,28.1z"/>
<path class="st2" d="M6.8,22.3c0.9-0.9,3.6-3,4.2-3.6c0.7-0.7,1.5,0.1,1.1,0.9s-3.1,3.8-3.1,3.8s1.6,0.5,1.9,0.9s1,3.1,0.4,3.5
	s-1.5,0.1-1.5,0.1s-1,2.4-3.5,2.3c-1-0.1-2.1-1-2-2.5c0.1-1.5,0.9-3,1.2-3.8C5.8,22.9,6.8,22.3,6.8,22.3z"/>
<path class="st5" d="M6.1,20.7c0,0-0.1,0-0.1,0c-2.4-0.7-2.9-3.6-2.9-3.7c0-0.3,0.2-0.5,0.4-0.6c0.3,0,0.5,0.1,0.6,0.4
	c0,0,0.4,2.3,2.2,2.9c0.3,0.1,0.4,0.4,0.3,0.6C6.5,20.6,6.3,20.7,6.1,20.7z M5,22.7c0,0-0.1,0-0.1,0c-3.6-1.1-4.5-5.1-4.6-5.3
	c-0.1-0.3,0.1-0.5,0.4-0.6c0.3-0.1,0.5,0.1,0.6,0.4c0,0,0.9,3.6,3.9,4.5c0.3,0.1,0.4,0.4,0.3,0.6C5.4,22.6,5.2,22.7,5,22.7z"/>
</svg>
