<?xml version="1.0" encoding="utf-8"?>
<!-- Generator: Adobe Illustrator 24.1.0, SVG Export Plug-In . SVG Version: 6.00 Build 0)  -->
<svg version="1.1" id="Layer_1" xmlns="http://www.w3.org/2000/svg" xmlns:xlink="http://www.w3.org/1999/xlink" x="0px" y="0px"
	 viewBox="0 0 36 36" style="enable-background:new 0 0 36 36;" xml:space="preserve">
<style type="text/css">
	.st0{fill:#E1E8ED;}
	.st1{fill:#FFDC5D;}
	.st2{fill:#FFAC33;}
	.st3{fill:#F9CA55;}
	.st4{fill:#DD551F;}
	.st5{fill:#C63900;}
	.st6{fill:#FA743E;}
	.st7{fill:#FA8C56;}
	.st8{opacity:0.7;fill:#FFFFFF;enable-background:new    ;}
</style>
<g>
	<circle class="st0" cx="4.5" cy="25.5" r="4.5"/>
	<circle class="st0" cx="25.5" cy="20.5" r="5.5"/>
	<circle class="st0" cx="31" cy="26.5" r="5"/>
	<circle class="st0" cx="12" cy="24" r="5"/>
	<path class="st0" d="M33,30c-1.7,0-3,1.3-3,3H6c0-1.7-1.3-3-3-3s-3,1.3-3,3c0,1.7,1.3,3,3,3h29v-0.2c0.3,0.1,0.6,0.2,1,0.2
		c1.7,0,3-1.3,3-3S34.7,30,33,30z"/>
	<path class="st0" d="M0,25.5h9V33H0V25.5z M20,23h9v4h-9V23z M31,26.5h5V33h-5V26.5z"/>
</g>
<path class="st1" d="M31,36v-4.5c0-3.3-3.6-5.5-6.9-5.5h-12C8.8,26,5,28.2,5,31.5V36H31z"/>
<path class="st2" d="M21.3,4c-1.7-0.6-5.8-0.4-6.8,0.9c-2.6,0.1-5.7,2.4-6.1,5.6C8,13.6,8.9,15,9.2,17.3c0.4,2.6,1.8,3.5,3,3.9
	c1.7,2.3,3.5,2.2,6.6,2.2c6,0,8.8-4,9.1-10.8C28.1,8.5,25.7,5.4,21.3,4z"/>
<path class="st1" d="M15.4,21.7v5.1c0,1.4,1.1,2.6,2.6,2.6s2.6-1.1,2.6-2.6v-5.1H15.4z"/>
<path class="st3" d="M15.4,24.7c0.7,0.8,1.6,1,2.6,1s1.8-0.2,2.6-1v-2h-5.1C15.4,22.7,15.4,24.7,15.4,24.7z"/>
<path class="st1" d="M24.7,12.9c-0.6-0.8-1.3-1.4-2.9-1.7c0.6,0.3,1.2,1.2,1.3,1.8s0.2,1-0.3,0.4c-1.9-2.1-4-1.3-6.1-2.6
	c-1.5-0.9-1.9-1.9-1.9-1.9s-0.2,1.3-2.4,2.7c-0.6,0.4-1.4,1.3-1.8,2.6c-0.3,0.9-0.2,1.8-0.2,3.2c0,4.2,3.4,7.7,7.7,7.7
	s7.7-3.5,7.7-7.7C25.7,14.8,25.4,13.8,24.7,12.9z"/>
<path class="st3" d="M15.4,25l-3.3,1c-2.1,0-4.3,0.8-5.7,2.3C6.2,28.8,6,29.4,6,30v6h16.4C22.4,36,17.7,32,15.4,25z"/>
<path class="st4" d="M24.1,26h-1.6c-1.6,7.6-6.8,10-6.8,10H31v-4.5C31,28.2,27.4,26,24.1,26z"/>
<path class="st5" d="M15.7,36h6.6c0,0-0.8-0.7-1.3-1.4C19.5,35.5,15.7,36,15.7,36z"/>
<path class="st6" d="M24.6,26c-0.8,0-2.8-1-4-1c-1.6,7.6-4.8,11-4.8,11h4C19.7,36,22.9,33.6,24.6,26z"/>
<path class="st4" d="M18.5,31.4c-0.9,1.9-2.8,4.6-2.8,4.6h4c0,0,0.6-0.6,1.2-1.4C20.1,33.6,19.1,32.2,18.5,31.4z"/>
<path class="st6" d="M13.4,26h-1.3C8.8,26,5,28.2,5,31.5V36h15.4C20.4,36,15.7,33,13.4,26z"/>
<path class="st7" d="M15.4,25c-1,0-3.2,1-4,1c2.3,7,5,10,5,10h4C20.4,36,17.7,32,15.4,25z"/>
<path class="st8" d="M32,28c-3,0-5.4,2.2-5.9,5c0,0-0.1,0-0.1,0c-2,0-3.8,1.2-4.6,3H33c1.7,0,3-1.3,3-3v-3.5
	C34.9,28.6,33.5,28,32,28z M13.6,36c-0.8-1.8-2.5-3-4.6-3c-0.8,0-1.5,0.2-2.2,0.5c0.1-0.3,0.2-0.7,0.2-1C7,30.6,5.4,29,3.5,29
	c-1.8,0-3.2,1.3-3.5,3H0v1c0,1.7,1.4,3,3,3C3,36,13.6,36,13.6,36z"/>
</svg>
