<?xml version="1.0" encoding="utf-8"?>
<!-- Generator: Adobe Illustrator 24.1.0, SVG Export Plug-In . SVG Version: 6.00 Build 0)  -->
<svg version="1.1" id="Layer_1" xmlns="http://www.w3.org/2000/svg" xmlns:xlink="http://www.w3.org/1999/xlink" x="0px" y="0px"
	 viewBox="0 0 36 36" style="enable-background:new 0 0 36 36;" xml:space="preserve">
<style type="text/css">
	.st0{fill:#F7DECE;}
	.st1{fill:#292F33;}
	.st2{fill:#FF7862;}
	.st3{fill:#DE2F33;}
	.st4{fill:#FF5540;}
	.st5{fill:#EEC2AD;}
	.st6{fill:#FF605E;}
	.st7{fill:#424143;}
	.st8{fill:#59595C;}
</style>
<path class="st0" d="M13.6,26h16v10h-16V26z"/>
<path class="st1" d="M29.6,26v10h6v-4C35.6,28.7,32.9,26,29.6,26z M13.6,26c-3.3,0-6,2.7-6,6v4h6V26z"/>
<path class="st2" d="M21.8,36h9l5.1-6.9c0,0-3.3-3.7-9.8-5c0,1.3,1,3.3,1,3.3l-5.3,7V36z"/>
<path class="st2" d="M21.8,36h-9l-5.1-6.9c0,0,3.3-3.7,9.8-5c0,1.3-1,3.3-1,3.3l5.3,7V36z"/>
<path class="st3" d="M33.5,27.1c0,0-2.5-1.7-4.7-2.4c-3.1-1.1-2.4,1.9-2.4,1.9s-3.8,6.4-4.7,7.9C21.8,34.5,28.8,28.9,33.5,27.1z
	 M10,27.1c0,0,2.5-1.7,4.7-2.4c3.1-1.1,2.4,1.9,2.4,1.9s3.8,6.4,4.7,7.9C21.8,34.5,14.7,28.9,10,27.1z"/>
<path class="st4" d="M21.8,34.6c0,0,7.3-7.5,12.1-8.4c-4.1-3.4-10.1-3-10.1-3c0,1.2,2,1.4,2,2.9c0,2.5-3.1,6.7-4,8.1L21.8,34.6z"/>
<path class="st4" d="M21.8,34.6c0,0-7.3-7.5-12.1-8.4c4.1-3.4,10.1-3,10.1-3c0,1.2-2,1.4-2,2.9c0,2.5,3.1,6.7,4,8.1L21.8,34.6z"/>
<path class="st0" d="M17.8,26c0,0,0.5,3.5,4,3.5s4-3.5,4-3.5v-4h-8V26z"/>
<path class="st5" d="M17.8,24c1.2,1.4,2.4,1.7,4,1.7c1.6,0,2.8-0.3,4-1.7v-1.6h-8V24z"/>
<path class="st6" d="M33.7,11.9c0.2-1.9-0.1-4-2.3-5.4l0,0c0.8,0.2,1.5,0.6,2.2,1.4c-1.3-3.8-5.2-6.1-9.3-6.7
	c-2-0.4-5.4-0.2-6.4,1.2c-2.9,0.1-5.4,2.8-6,6.2c-0.5,2.6,0.2,6.8,1.3,8.7c1.5,2.6,2.4-1.5,3.8-1.1c1.9,2.5,2.3,6.8,5.7,6.8
	c6.5,0,9.1-4.2,9.5-11.5c0.1,0.5,0.2,1.1,0.4,1.7c0.4,1.4,1.8,1.6,1.8,1.6S33.5,13.9,33.7,11.9z"/>
<path class="st0" d="M29.3,11.2c-0.6-0.9-1.5-1.6-3.3-1.9c0.7,0.3,1.3,1.4,1.4,2c0.1,0.6,0.2,1.1-0.4,0.5c-2.2-2.4-4.5-1.4-6.8-2.9
	c-1.6-1-2.1-2.1-2.1-2.1s-0.2,1.5-2.7,3c-0.7,0.4-1.6,1.4-2,2.9c-0.3,1-0.2,2-0.2,3.6c0,4.7,3.8,8.6,8.6,8.6s8.6-4,8.6-8.6
	C30.4,13.4,30.1,12.3,29.3,11.2z"/>
<path class="st7" d="M10.4,20c-1.7,0-3.1,1.4-3.1,3.1c0,0.5,0.1,0.9,0.3,1.3l-0.2-0.2c-0.3-0.3-0.9-0.3-1.2,0l-5.5,6.2
	c-0.5,0.6-0.8,1.6,0,2.5c0.8,0.8,1.8,0.6,2.5,0L4,32.1V36h1.8v-5.5l3.4-3.1c0.4-0.3,0.4-0.9,0-1.2L9,25.8c0.4,0.2,0.9,0.3,1.3,0.3
	c1.7,0,3.1-1.4,3.1-3.1C13.4,21.4,12.1,20,10.4,20z"/>
<path class="st8" d="M12,26c-0.1,0.1-0.4,0.1-0.5,0L7.4,22c-0.2-0.1-0.2-0.4,0-0.5l0.5-0.5c0.1-0.1,0.4-0.1,0.5,0l4.1,4.1
	c0.1,0.1,0.1,0.4,0,0.5C12.6,25.5,12,26,12,26z"/>
</svg>
