<?xml version="1.0" encoding="utf-8"?>
<!-- Generator: Adobe Illustrator 24.1.0, SVG Export Plug-In . SVG Version: 6.00 Build 0)  -->
<svg version="1.1" id="Layer_1" xmlns="http://www.w3.org/2000/svg" xmlns:xlink="http://www.w3.org/1999/xlink" x="0px" y="0px"
	 viewBox="0 0 36 36" style="enable-background:new 0 0 36 36;" xml:space="preserve">
<style type="text/css">
	.st0{fill:#FA743E;}
	.st1{fill:#D4AB88;}
	.st2{fill:#CC9B7A;}
	.st3{fill:#963B22;}
	.st4{fill:#E1E8ED;}
	.st5{fill:#99AAB5;}
</style>
<path class="st0" d="M35,36v-5c0-3.3-2.7-6-6-6H13c-3.3,0-6,2.7-6,6v5H35z"/>
<path class="st1" d="M16.6,25.1c0,0.9,2.4,2,4.4,2s4.4-1.1,4.4-2v-3.8h-8.7L16.6,25.1L16.6,25.1z"/>
<path class="st2" d="M16.6,23.1c1.2,1.4,2.7,1.7,4.4,1.7c1.6,0,3.1-0.4,4.4-1.7v-3.5h-8.7L16.6,23.1L16.6,23.1z"/>
<path class="st3" d="M24.7,0.5c-1.9-0.6-6.5-0.5-7.6,1c-2.9,0.1-6.4,2.7-6.9,6.2c-0.4,3.5,0.6,5.1,0.9,7.7c0.4,3,2.1,3.9,3.4,4.3
	c1.9,2.5,3.9,2.4,7.4,2.4c6.7,0,9.9-4.5,10.1-12C32.3,5.6,29.6,2.1,24.7,0.5z"/>
<path class="st1" d="M28.5,10.5c-0.6-0.9-1.5-1.6-3.3-1.9c0.7,0.3,1.3,1.4,1.4,2c0.1,0.6,0.2,1.1-0.4,0.5c-2.2-2.4-4.5-1.4-6.8-2.9
	c-1.6-1-2.1-2.1-2.1-2.1s-0.2,1.5-2.7,3c-0.7,0.4-1.6,1.4-2,2.9c-0.3,1-0.2,2-0.2,3.6c0,4.7,3.8,8.6,8.6,8.6s8.6-4,8.6-8.6
	C29.6,12.6,29.3,11.5,28.5,10.5z"/>
<path class="st4" d="M33,35c0,0.6-0.4,1-1,1H22c-0.6,0-1-0.4-1-1s0.4-1,1-1h10C32.6,34,33,34.4,33,35z"/>
<path class="st4" d="M20.2,22H3.8c-1.5,0-3.5,0.8-2.5,3.5L4.4,34c0,0,0.4,2,2.6,2h20l-4-11.2C22.6,23.4,21.8,22,20.2,22z"/>
<path class="st5" d="M19.2,22H2.8c-1.5,0-3.5,0.8-2.5,3.5L3.4,34c0,0,0.4,2,2.6,2h20l-4-11.2C21.6,23.4,20.8,22,19.2,22z"/>
<path class="st4" d="M14,29.3c0.5,1.6,0.1,3.1-0.9,3.5c-1,0.3-2.3-0.6-2.8-2.2s-0.1-3.1,0.9-3.5S13.5,27.7,14,29.3z M19,24.8H3
	c-0.4,0-0.8-0.3-0.8-0.8s0.3-0.8,0.8-0.8h16c0.4,0,0.8,0.3,0.8,0.8S19.4,24.8,19,24.8z"/>
</svg>
