<?xml version="1.0" encoding="utf-8"?>
<!-- Generator: Adobe Illustrator 24.1.0, SVG Export Plug-In . SVG Version: 6.00 Build 0)  -->
<svg version="1.1" id="Layer_1" xmlns="http://www.w3.org/2000/svg" xmlns:xlink="http://www.w3.org/1999/xlink" x="0px" y="0px"
	 viewBox="0 0 36 36" style="enable-background:new 0 0 36 36;" xml:space="preserve">
<style type="text/css">
	.st0{fill:#FFAC33;}
	.st1{fill:#FFDC5D;}
</style>
<path class="st0" d="M23,0.6C20.4-0.2,14.3,0,12.8,2c-3.9,0.1-8.6,3.6-9.2,8.3C3,15,4.4,17.2,4.9,20.7c0.5,4,2.8,5.2,4.6,5.8
	c2.6,3.4,5.3,3.2,9.9,3.2c8.9,0,13.2-6,13.6-16.1C33.1,7.4,29.5,2.7,23,0.6z"/>
<path class="st1" d="M28.1,14c-0.9-1.2-2-2.2-4.4-2.5c0.9,0.4,1.8,1.9,1.9,2.7c0.1,0.8,0.2,1.4-0.5,0.6c-2.9-3.2-6-1.9-9.1-3.9
	C13.8,9.5,13.1,8,13.1,8s-0.3,2-3.6,4.1c-1,0.6-2.1,1.9-2.7,3.9c-0.5,1.4-0.3,2.7-0.3,4.8c0,6.2,5.1,11.5,11.5,11.5
	s11.5-5.3,11.5-11.5C29.5,16.8,29.1,15.3,28.1,14z"/>
<path class="st0" d="M27.4,24.2c-1,1.1-3.1,3.3-5.2,2.2c-2.9-1.6-4.2-1.1-4.2-1.1s-1.2-0.5-4.2,1.1c-2.1,1.1-4.2-1.1-5.2-2.2
	c-0.7-0.8-3.1-2.2-3.1,0c0,3.3,2.1,5.5,2.1,5.5c2.1,5.5,6.2,5.5,6.2,5.5c1,1.1,7.3,1.1,8.3,0c0,0,4.2,0,6.2-5.5c0,0,2.1-2.2,2.1-5.5
	C30.5,22,28.1,23.4,27.4,24.2z"/>
<path class="st1" d="M18,29.7c-4.2,0-7.3-2.2,0-2.2S22.2,29.7,18,29.7z"/>
</svg>
