<?xml version="1.0" encoding="utf-8"?>
<!-- Generator: Adobe Illustrator 24.1.0, SVG Export Plug-In . SVG Version: 6.00 Build 0)  -->
<svg version="1.1" id="Layer_1" xmlns="http://www.w3.org/2000/svg" xmlns:xlink="http://www.w3.org/1999/xlink" x="0px" y="0px"
	 viewBox="0 0 36 36" style="enable-background:new 0 0 36 36;" xml:space="preserve">
<style type="text/css">
	.st0{fill:#9266CC;}
	.st1{fill:#744EAA;}
	.st2{fill:#FFDC5D;}
	.st3{fill:#553788;}
</style>
<path class="st0" d="M31,36v-3.5c0-3.3-3.7-5.5-7-5.5H12c-3.3,0-7,2.2-7,5.5V36H31z"/>
<path class="st1" d="M27.2,16.8c0-8.5-5.3-11-9.2-11s-9.8,2.6-9.8,11c0,3.5,1.3,6.2,0.6,8.2c-1.2,4,2.9,7.5,6.1,9c4.9,2.3,10-3,10-3
	C29,31,27.2,26.8,27.2,16.8z"/>
<path class="st0" d="M27.8,16.8C27.8,8.3,21.9,5,18,5S8.2,8.3,8.2,16.8c0,8.5,7.2,11.8,11.1,11.8c2.9,0,3.8,1.5,5.7,1.5
	C30.3,30,27.8,25.6,27.8,16.8z"/>
<path class="st2" d="M16.9,11.2c-2.2,0.3-6.6,3.9-6.7,5.8c0.2,5.3,3.6,9.6,7.8,9.6c4.2,0,7.6-4.2,7.8-9.5
	C25.6,14.7,18.9,10.9,16.9,11.2z"/>
<path class="st3" d="M10,17c0,0,3-5,8-5s8,5,8,5s-1-8-8-8S10,17,10,17z"/>
</svg>
