<?xml version="1.0" encoding="utf-8"?>
<!-- Generator: Adobe Illustrator 24.1.0, SVG Export Plug-In . SVG Version: 6.00 Build 0)  -->
<svg version="1.1" id="Layer_1" xmlns="http://www.w3.org/2000/svg" xmlns:xlink="http://www.w3.org/1999/xlink" x="0px" y="0px"
	 viewBox="0 0 36 36" style="enable-background:new 0 0 36 36;" xml:space="preserve">
<style type="text/css">
	.st0{fill:#77B255;}
	.st1{fill:#3E721D;}
	.st2{fill:#FFDC5D;}
	.st3{fill:#F9CA55;}
	.st4{fill:#FFAC33;}
	.st5{fill:#3B88C3;}
	.st6{fill:#C1694F;}
	.st7{fill:#292F33;}
	.st8{fill:#66757F;}
</style>
<path class="st0" d="M36,36v-2c0-3.3-2.7-6-6-6H14c-3.3,0-6,2.7-6,6v2H36z"/>
<path class="st1" d="M22,34c0.8,0,5-3,5-6H17C17,31,21.2,34,22,34z"/>
<path class="st2" d="M17.6,28c0,2.8,8.7,3,8.7,0v-3.7h-8.7V28z"/>
<path class="st3" d="M17.6,26c1.2,1.4,2.7,1.7,4.4,1.7c1.6,0,3.1-0.4,4.4-1.7v-3.5h-8.7V26z"/>
<path class="st4" d="M25.2,3.3c-1.9-0.6-5.9-0.5-7,1c-1.9,0-1.6,3.7-5.1,3c-0.7,1-1.3,2.2-1.4,3.5c-0.4,3.5,0.2,4.9,0.6,7.5
	c0.4,3,2.1,3.9,3.4,4.3c1.9,2.5,3.9,2.4,7.4,2.4c6.7,0,9.3-4.5,9.6-12c0.1-2.2-0.5-4.1-1.6-5.6C27.1,8.8,27.7,4.1,25.2,3.3z"/>
<path class="st2" d="M29.5,13.2c-0.6-0.9-1.5-1.6-3.3-1.9c0.7,0.3,1.9,2.2,2,2.8s0.2,1.1-0.4,0.5c-2.2-2.4-5-2.3-7.4-3.7
	c-1.6-1-2.1-2.1-2.1-2.1s-0.2,1.5-2.7,3c-0.7,0.4-1.6,1.4-2,2.9c-0.3,1-0.2,2-0.2,3.6c0,4.7,3.8,8.6,8.6,8.6s8.6-4,8.6-8.6
	C30.6,15.4,30.3,14.3,29.5,13.2z"/>
<path class="st5" d="M13,28h3v8h-3V28z M28,28h3v8h-3V28z"/>
<path class="st5" d="M13.1,35H31v1H13.1V35z"/>
<path class="st6" d="M30,8.8c0,1.3-3.1,2.2-8,2.2c-4.9,0-8-0.9-8-2.2C14,5.3,18,0,19.3,0c1.3,0,2.2,1.8,2.7,1.8S23.3,0,24.7,0
	C26,0,30,5.3,30,8.8z"/>
<path class="st6" d="M35.9,8c0,1.7-3.5,6-14,6s-14-4.3-14-6s6.8-1,14-1S35.9,6.3,35.9,8z"/>
<path class="st7" d="M30,8.8c0,1.3-3.1,2.2-8,2.2c-4.9,0-8-0.9-8-2.2c0-0.6,0.1-1.2,0.3-1.8c2.4,2,13.1,2,15.4,0
	C29.9,7.6,30,8.2,30,8.8z"/>
<path class="st6" d="M7,31.8c0-0.7-0.6-1.2-1.2-1.2s-1.2,0.6-1.2,1.2V36H7V31.8z"/>
<path class="st8" d="M10,22.8c0,2.4-1.9,4.3-4.3,4.3s-4.3-1.9-4.3-4.3c0-0.1-1.5-0.1-1.5,0c0,3.2,2.6,5.8,5.8,5.8s5.8-2.6,5.8-5.8
	C11.5,22.7,10,22.7,10,22.8z"/>
<path class="st8" d="M1.5,22.8c0,0.4-0.3,0.8-0.8,0.8S0,23.2,0,22.8v-8.5c0-0.4,0.3-0.8,0.8-0.8s0.8,0.3,0.8,0.8V22.8z M11.5,22.8
	c0,0.4-0.3,0.8-0.8,0.8S10,23.2,10,22.8v-8.5c0-0.4,0.3-0.8,0.8-0.8s0.8,0.3,0.8,0.8V22.8z M6.5,31c0,0.4-0.3,0.8-0.8,0.8
	S5,31.4,5,31V14.2c0-0.4,0.3-0.8,0.8-0.8s0.8,0.3,0.8,0.8V31z"/>
</svg>
