<?xml version="1.0" encoding="utf-8"?>
<!-- Generator: Adobe Illustrator 24.1.0, SVG Export Plug-In . SVG Version: 6.00 Build 0)  -->
<svg version="1.1" id="Layer_1" xmlns="http://www.w3.org/2000/svg" xmlns:xlink="http://www.w3.org/1999/xlink" x="0px" y="0px"
	 viewBox="0 0 36 36" style="enable-background:new 0 0 36 36;" xml:space="preserve">
<style type="text/css">
	.st0{fill:#F7DECE;}
	.st1{fill:#292F33;}
</style>
<path class="st0" d="M32,19.9c0-2.2-1.1-4-2.5-4c0,0,0,0,0,0C28,9.6,23.4,5,18,5S8,9.6,6.5,15.9c0,0,0,0,0,0c-1.4,0-2.5,1.8-2.5,4
	c0,2.1,1,3.8,2.3,4c1.2,6.6,6,10.5,11.7,10.5c5.7,0,10.5-3.9,11.7-10.5C31,23.7,32,22,32,19.9z"/>
<path class="st1" d="M33,12.6c0-0.9-0.5-1.7-1.2-2.1C31.9,10.3,32,10,32,9.6c0-1.3-1-2.3-2.2-2.5c0.1-0.3,0.2-0.7,0.2-1
	c0-1.7-1.3-3-3-3c-0.4,0-0.8,0.1-1.1,0.2c-0.3-1.3-1.5-2.2-2.9-2.2c-0.9,0-1.6,0.4-2.2,1c-0.4-1.1-1.5-2-2.8-2s-2.4,0.8-2.8,2
	c-0.5-0.6-1.3-1-2.2-1c-1.4,0-2.5,0.9-2.9,2.2C9.8,3.2,9.4,3.1,9,3.1c-1.7,0-3,1.3-3,3c0,0.4,0.1,0.7,0.2,1C5,7.3,4,8.4,4,9.6
	c0,0.3,0.1,0.6,0.2,0.9C3.5,11,3,11.8,3,12.6c0,0.9,0.5,1.6,1.1,2.1c-0.6,1-0.5,2.6,1.1,2.8c-0.1,1.4,1.3,2.5,1.3,0.5
	c0-1.1,0.4-2.4,1.1-4c1.2,0.4,2.7,0.2,3.9-0.1s2.3-1,2.5-1.2c0.4,1.4,2,2.4,3.9,2.4c1.3,0,2.8-0.3,3.5-1.1c0.5,1.3,2.2,2,4,2
	c1.1,0,2.5-0.4,3.3-0.9c0.3,0.8,0.6,1.4,0.5,2.6c0,2.3,1,1.5,1.5-0.1c1.4,0,1.7-1.7,1.1-2.8C32.5,14.3,33,13.5,33,12.6z"/>
</svg>
