<?xml version="1.0" encoding="utf-8"?>
<!-- Generator: Adobe Illustrator 24.1.0, SVG Export Plug-In . SVG Version: 6.00 Build 0)  -->
<svg version="1.1" id="Layer_1" xmlns="http://www.w3.org/2000/svg" xmlns:xlink="http://www.w3.org/1999/xlink" x="0px" y="0px"
	 viewBox="0 0 36 36" style="enable-background:new 0 0 36 36;" xml:space="preserve">
<style type="text/css">
	.st0{fill:#3B88C3;}
	.st1{fill:#292F33;}
	.st2{fill:#7C533E;}
	.st3{fill:#55ACEE;}
	.st4{fill:#664131;}
	.st5{fill:#0B0200;}
	.st6{fill:#66757F;}
	.st7{fill:#99AAB5;}
	.st8{fill:#F4900C;}
	.st9{fill:#FFDC5D;}
	.st10{fill:#226699;}
</style>
<path class="st0" d="M36,36v-2c0-3.3-2.7-6-6-6H14c-3.3,0-6,2.7-6,6v2H36z"/>
<path class="st1" d="M22,36l-5.6-9h11.2L22,36z"/>
<path class="st2" d="M17.6,30c1.7,1.3,2.8,2,4.4,2c1.5,0,2.6-0.7,4.4-2v-5.7h-8.7L17.6,30L17.6,30z"/>
<path class="st3" d="M15,28c0,1,1,3,3,5c1.6,1.6,4,3,4,3c0-3.1-1-4-2-5s-3-2-3-4C17,26,15,28,15,28 M29,28c0,1-1,3-3,5
	c-1.6,1.6-4,3-4,3c0-3.1,1-4,2-5s3-2,3-4C27,26,29,28,29,28"/>
<path class="st4" d="M17.6,26c1.2,1.4,2.7,1.7,4.4,1.7c1.6,0,3.1-0.4,4.4-1.7v-3.5h-8.7V26z"/>
<path class="st5" d="M25.2,3.3c-1.9-0.6-5.9-0.5-7,1c-2.9,0.1-6.1,2.9-6.5,6.4c-0.4,3.5,0.2,4.9,0.6,7.5c0.4,3,2.1,3.9,3.4,4.3
	c1.9,2.5,3.9,2.4,7.4,2.4c6.7,0,9.3-4.5,9.6-12C32.7,8.3,30,4.9,25.2,3.3z"/>
<path class="st2" d="M29.5,13.2c-0.6-0.9-1.5-1.6-3.3-1.9c0.7,0.3,1.3,1.4,1.4,2c0.1,0.6,0.2,1.1-0.4,0.5c-2.2-2.4-4.5-1.4-6.8-2.9
	c-1.6-1-2.1-2.1-2.1-2.1s-0.2,1.5-2.7,3c-0.7,0.4-1.6,1.4-2,2.9c-0.3,1-0.2,2-0.2,3.6c0,4.7,3.8,8.6,8.6,8.6s8.6-4,8.6-8.6
	C30.6,15.4,30.3,14.3,29.5,13.2z"/>
<path class="st6" d="M5,24l-1.5,1c0,0,1.5,2.5,1.5,6v5h2v-5C7,26.5,5,24,5,24z"/>
<path class="st7" d="M6.1,23.8c0.2,0.4,0.1,0.9-0.3,1.1L3.6,26c-0.4,0.2-0.9,0.1-1.1-0.3l-0.5-0.8c-0.2-0.4-0.1-0.9,0.3-1.1l2.1-1.2
	c0.4-0.2,0.9-0.1,1.1,0.3L6.1,23.8z"/>
<path class="st8" d="M3.5,22.6c4.2-2.2-3.4-6.3-3.4-6.3S-0.7,24.8,3.5,22.6z"/>
<path class="st9" d="M3,21.4c2.2-1.2-1.8-3.3-1.8-3.3S0.8,22.5,3,21.4z"/>
<path class="st0" d="M34,11c-3-2-1-4.2-3-7c-1.9-2.7-5-4-9-4c-5,0-7.1,1.3-9,4c-2,2.8,0,5-3,7c-1.9,1.2,6,2.3,12,2.3
	S35.9,12.2,34,11"/>
<path class="st10" d="M20,11.5V0.1c-0.4,0-0.7,0.1-1,0.1v10.3c-2.1-0.1-5.1-0.4-7.7-0.9c-0.2,0.3-0.4,0.6-0.7,0.9
	c2.9,0.6,6.6,1,8.9,1L20,11.5L20,11.5z M24.5,11.5c2.4,0,6-0.4,8.9-1c-0.3-0.3-0.6-0.6-0.7-0.9c-2.4,0.4-5.4,0.8-7.7,0.8V0.3
	c-0.3-0.1-0.7-0.1-1-0.2v11.4C24,11.5,24.5,11.5,24.5,11.5z"/>
</svg>
