<?xml version="1.0" encoding="utf-8"?>
<!-- Generator: Adobe Illustrator 24.1.0, SVG Export Plug-In . SVG Version: 6.00 Build 0)  -->
<svg version="1.1" id="Layer_1" xmlns="http://www.w3.org/2000/svg" xmlns:xlink="http://www.w3.org/1999/xlink" x="0px" y="0px"
	 viewBox="0 0 36 36" style="enable-background:new 0 0 36 36;" xml:space="preserve">
<style type="text/css">
	.st0{fill:#292F33;}
	.st1{fill:#F7DECE;}
</style>
<path class="st0" d="M17.1,5.6c-7.6,0-11.4,4.9-12.3,8.6c-0.7,2.7,0.3,5.8,0.6,9.2c0.3,3,2,5.6,3.8,6.1c2.6,3.3,5.4,3.1,10,3.1
	c9.1,0,12.5-6.8,12.5-14.6C31.8,12.1,27.6,5.6,17.1,5.6z"/>
<path class="st1" d="M28.3,18.7c-0.9-1.2-2-2.2-4.5-2.5c0.9,0.4,1.8,1.9,1.9,2.7s0.2,1.5-0.5,0.7c-2.9-3.2-6.1-2-9.3-3.9
	c-2.2-1.4-2.9-2.9-2.9-2.9s-0.3,2-3.6,4.1c-1,0.6-2.1,1.9-2.8,3.9C6.2,22.1,6.2,23,6.4,24c1.2,6.4,5.5,10,11.6,10
	c6.1,0,10.4-2.9,11.6-9.6c0-0.3,0-0.6,0-0.9C29.7,21.1,29.3,20.1,28.3,18.7z"/>
</svg>
