<?xml version="1.0" encoding="utf-8"?>
<!-- Generator: Adobe Illustrator 24.1.0, SVG Export Plug-In . SVG Version: 6.00 Build 0)  -->
<svg version="1.1" id="Layer_1" xmlns="http://www.w3.org/2000/svg" xmlns:xlink="http://www.w3.org/1999/xlink" x="0px" y="0px"
	 viewBox="0 0 36 36" style="enable-background:new 0 0 36 36;" xml:space="preserve">
<style type="text/css">
	.st0{fill:#FA743E;}
	.st1{fill:#7C533E;}
	.st2{fill:#664131;}
	.st3{fill:#0B0200;}
	.st4{fill:#DD2E44;}
	.st5{fill:#E1E8ED;}
	.st6{fill:#88C9F9;}
	.st7{fill:#55ACEE;}
	.st8{fill:#A6D388;}
</style>
<path class="st0" d="M29.3,33L29,26.2c0.1-3.3-2.5-6.1-5.8-6.2l-10-0.3c-3.3-0.1-5.1,2.2-6.2,5.8l-0.7,6.3L29.3,33z"/>
<path class="st1" d="M14.6,20.2c0,0.7,1.8,1.5,3.4,1.5c1.6,0,3.4-0.9,3.4-1.5v-3h-6.8C14.6,17.2,14.6,20.2,14.6,20.2z"/>
<path class="st2" d="M14.6,18.6c0.9,1.1,2.1,1.3,3.4,1.3c1.3,0,2.5-0.3,3.4-1.3v-2.7h-6.8C14.6,15.9,14.6,18.6,14.6,18.6z"/>
<path class="st3" d="M21.6,1.3c-1.5-0.6-4.9-0.6-5.9,0.5c-2.3-0.1-5,1.8-5.5,4.5c-0.5,2.7,0.2,3.9,0.4,6c0.2,2.3,1.4,3.1,2.4,3.4
	c1.4,2,2.9,2,5.6,2.2c5.1,0.3,7.8-3,8.3-8.9C27.2,5.5,25.3,2.7,21.6,1.3z"/>
<path class="st1" d="M24.1,9.8c-0.5-0.7-1.1-1.3-2.5-1.6c0.5,0.3,1,1.1,1,1.6c0,0.5,0.1,0.8-0.3,0.4C20.8,8.2,19,9,17.2,7.8
	c-1.2-0.8-1.5-1.4-1.5-1.4s-0.3,0.8-2.2,1.9c-0.6,0.3-1.3,1.1-1.7,2.2c-0.3,0.8-0.2,0.6-0.2,1.8c-0.2,3.6,2.6,6.8,6.3,6.9
	s6.8-2.7,6.9-6.3C24.9,10.8,24.7,10.6,24.1,9.8z"/>
<path class="st4" d="M28.5,30.8c0.5,1.5-1.1,0.8-2.4,1.3c-0.8,0.3-2.3,0.8-2.5,0.1c-0.4-1.4-1.2-3.7-1.5-5.1c0,0,0.1,0,0.1,0
	C22.1,27,22,26.5,22,26.4c-0.1-1.5,0.9-3.1,0.9-3.1s2.1-0.3,2.6-0.5c0.2,1.6,0.5,2.6,0.5,2.6S27.9,29,28.5,30.8z"/>
<path class="st5" d="M23.5,21l0.4,1.2c0.3,0.8-0.2,1.6-1,1.9l-4.5,1.5c-0.8,0.3-1.6-0.2-1.9-1l-0.4-1.2c-0.3-0.8,0.2-1.6,1-1.9
	l4.5-1.5C22.4,19.8,23.3,20.2,23.5,21z"/>
<path class="st6" d="M14.8,23.1c0.2,0.7-1.9,1.4-1.7,2.1s2.4,0,2.6,0.7c0.2,0.7,0.9,0.4,0.9,0.4l-0.7-2l-0.7-2
	C15.3,22.2,14.6,22.4,14.8,23.1z"/>
<path class="st7" d="M16.6,22l1.2,3.5c0.1,0.3-0.1,0.5-0.3,0.6l-0.7,0.2c-0.3,0.1-0.5-0.1-0.6-0.3L15,22.6c-0.1-0.3,0.1-0.5,0.3-0.6
	l0.7-0.2C16.2,21.6,16.5,21.8,16.6,22z"/>
<path class="st8" d="M22,35.1c1.1,0,2.7-2.3,1.1-3.7c-1.6-1.3-4.5-3.1-6-3.8c-1.9-0.9-5.4-3.9-6.1-4.6s-2.4-0.6-3.2,0.7
	c-0.6,0.9-1.4,4.2,0,6.8c1.7,3.1,4.6,5.1,8.4,5.1c1,0,2.1,0.1,2.7-0.1S20.7,35.1,22,35.1z"/>
<path class="st1" d="M24.6,28.2c1.3-0.1,1.3-1.9,1.1-3c-0.3-2.1,0.1-3.9-1.6-4.6c-1.4-0.7-0.7,1.4-1.5,3c-1.1,2.3-0.4,3.4-0.4,3.4
	S23.5,28.3,24.6,28.2z"/>
<path class="st0" d="M29.1,32.3c0.7,2.2-1.8,3.6-3.4,3c-0.9-0.3-1.4-1.5-2-3.7c-0.8-2.9-1.3-4.5-1.3-4.5s0.9-0.2,1.9-0.7
	c1-0.5,1.6-0.9,1.6-0.9S28.5,30.6,29.1,32.3z"/>
<path class="st1" d="M17.3,35.9h2.6c2.1,0,4.3-1.4,4.4-3.2c0.1-1.6-1.6-0.3-3.4-0.6c-1.6-0.3-3,0.1-3,0.1S18,34.7,17.3,35.9z"/>
<path class="st0" d="M6.5,31c0.7-1.5,3.4-1,5.8-0.4c2.1,0.5,4.3,1.2,5.9,1.5c0,0,0.3,0.8,0.2,2.1c-0.1,0.8-0.5,1.7-0.5,1.7
	s-3.2,0.1-5.4-0.2C9.3,35.2,5.3,33.6,6.5,31z"/>
</svg>
