<?xml version="1.0" encoding="utf-8"?>
<!-- Generator: Adobe Illustrator 24.1.0, SVG Export Plug-In . SVG Version: 6.00 Build 0)  -->
<svg version="1.1" id="Layer_1" xmlns="http://www.w3.org/2000/svg" xmlns:xlink="http://www.w3.org/1999/xlink" x="0px" y="0px"
	 viewBox="0 0 36 36" style="enable-background:new 0 0 36 36;" xml:space="preserve">
<style type="text/css">
	.st0{fill:#3B88C3;}
	.st1{fill:#FFDC5D;}
	.st2{fill:#F9CA55;}
	.st3{fill:#FFAC33;}
	.st4{fill:#292F33;}
	.st5{fill:#CCD6DD;}
	.st6{fill:#F5F8FA;}
</style>
<path class="st0" d="M32,36v-4c0-3.3-2.7-6-6-6H10c-3.3,0-6,2.7-6,6v4H32z"/>
<path class="st1" d="M14,26l4,5l4-5v-4h-8V26z"/>
<path class="st2" d="M14,24c1.2,1.4,2.4,1.7,4,1.7c1.6,0,2.8-0.3,4-1.7v-4h-8V24z"/>
<path class="st3" d="M21.6,1.4c-1.9-0.6-6.5-0.5-7.6,1c-2.9,0.1-6.4,2.7-6.9,6.2c-0.4,3.5,0.6,5.1,0.9,7.7c0.4,3,2.1,3.9,3.4,4.3
	c1.9,2.5,3.9,2.4,7.4,2.4c6.7,0,9.9-4.5,10.1-12C29.1,6.4,26.4,2.9,21.6,1.4z"/>
<path class="st1" d="M25.4,11.3c-0.6-0.9-1.5-1.6-3.3-1.9c0.7,0.3,1.3,1.4,1.4,2c0.1,0.6,0.2,1.1-0.4,0.5C21,9.5,18.7,10.5,16.4,9
	c-1.6-1-2.1-2.1-2.1-2.1s-0.2,1.5-2.7,3c-0.7,0.4-1.6,1.4-2,2.9c-0.3,1-0.2,2-0.2,3.6c0,4.7,3.8,8.6,8.6,8.6s8.6-4,8.6-8.6
	C26.5,13.5,26.1,12.3,25.4,11.3z"/>
<path class="st4" d="M10,32.5H8c0-4.1,1.9-8.5,6-8.5v2C10.8,26,10,30.3,10,32.5z M27,28.5h-2c0-0.4-0.5-2.5-3-2.5v-2
	C25.5,24,27,26.9,27,28.5z"/>
<circle class="st5" cx="9" cy="32.5" r="3"/>
<circle class="st6" cx="9" cy="32.5" r="2"/>
<path class="st4" d="M30,34h-2c0-0.8-0.1-5-2.2-5s-2.2,4.2-2.2,5h-2c0-4.4,1.6-7,4.2-7S30,29.6,30,34z"/>
<circle class="st5" cx="22.5" cy="34" r="1"/>
<circle class="st5" cx="29" cy="34" r="1"/>
</svg>
