<?xml version="1.0" encoding="utf-8"?>
<!-- Generator: Adobe Illustrator 24.1.0, SVG Export Plug-In . SVG Version: 6.00 Build 0)  -->
<svg version="1.1" id="Layer_1" xmlns="http://www.w3.org/2000/svg" xmlns:xlink="http://www.w3.org/1999/xlink" x="0px" y="0px"
	 viewBox="0 0 36 36" style="enable-background:new 0 0 36 36;" xml:space="preserve">
<style type="text/css">
	.st0{fill:#E1E8ED;}
	.st1{fill:#D4AB88;}
	.st2{fill:#963B22;}
	.st3{fill:#CC9B7A;}
	.st4{fill:#9266CC;}
	.st5{fill:#A47DE2;}
	.st6{fill:#744EAA;}
	.st7{fill:#553788;}
	.st8{opacity:0.7;fill:#FFFFFF;enable-background:new    ;}
</style>
<g>
	<circle class="st0" cx="4.5" cy="25.5" r="4.5"/>
	<circle class="st0" cx="25.5" cy="20.5" r="5.5"/>
	<circle class="st0" cx="31" cy="26.5" r="5"/>
	<circle class="st0" cx="12" cy="24" r="5"/>
	<path class="st0" d="M33,30c-1.7,0-3,1.3-3,3H6c0-1.7-1.3-3-3-3s-3,1.3-3,3c0,1.7,1.3,3,3,3h29v-0.2c0.3,0.1,0.6,0.2,1,0.2
		c1.7,0,3-1.3,3-3S34.7,30,33,30z"/>
	<path class="st0" d="M0,25.5h9V33H0V25.5z M20,23h9v4h-9V23z M31,26.5h5V33h-5V26.5z"/>
</g>
<path class="st1" d="M31,36v-4.5c0-3.3-3.6-5.5-6.9-5.5h-12C8.8,26,5,28.2,5,31.5V36H31z"/>
<path class="st2" d="M17.9,4C22,4,28.9,6,28.9,14.9c0,8.9,0,10.9-2.1,10.9s-4.8-2.1-8.9-2.1s-6.8,2.1-8.9,2.1
	C6.8,25.9,7,17.7,7,14.9C7,6,13.8,4,17.9,4"/>
<path class="st1" d="M14.5,26c1,2,2.8,4.5,3.5,4.5s2.5-2.5,3.5-4.5v-3.6h-7V26z"/>
<path class="st3" d="M14.3,24.1c1,1.2,2.3,1.5,3.7,1.5c1.4,0,2.6-0.3,3.7-1.5v-2.9h-7.3C14.3,21.2,14.3,24.1,14.3,24.1z"/>
<path class="st1" d="M9.7,14.6c0-5.8,3.7-10.6,8.2-10.6c4.5,0,8.2,4.7,8.2,10.6s-3.7,10.3-8.2,10.3C13.4,24.9,9.7,20.5,9.7,14.6"/>
<path class="st2" d="M7.7,17.9c0-1,0-0.2,0-0.5c0-3.4,2.1,0.5,2.1-1.9c0-2.4,1.4-2.7,2.7-4.1c0.7-0.7,2.1-2,2.1-2s3.4,2.1,6.2,2.1
	c2.7,0,5.5,1.4,5.5,4.1c0,2.7,2.1-1.6,2.1,1.8c0,0.2,0-0.5,0,0.5h0.7c0-2,0-1.9,0-3.2c0-8.9-6.8-12.2-10.9-12.2
	C13.9,2.5,7,5.8,7,14.7c0,0.8,0,1.3,0,3.3C7,17.9,7.7,17.9,7.7,17.9z"/>
<path class="st4" d="M9.8,31.5V36h11.5v-0.5h5v-4H9.8z"/>
<path class="st5" d="M19.2,31.5c2,1,2,4,2,4V36h1v-0.5h3v-4H19.2z"/>
<path class="st6" d="M20.2,31.5c2,1,2,4,2,4V36h4v-4.5H20.2z"/>
<path class="st6" d="M20.2,31.5H9.8v1h11.6C21.1,32.1,20.7,31.7,20.2,31.5z"/>
<path class="st4" d="M20.4,32.5h1c-0.3-0.4-0.6-0.8-1.1-1h-1C19.7,31.7,20.1,32.1,20.4,32.5z"/>
<path class="st7" d="M20.2,31.5c0.5,0.2,0.8,0.6,1.1,1h4.9v-1H20.2z"/>
<path class="st8" d="M32,28c-3,0-5.4,2.2-5.9,5c0,0-0.1,0-0.1,0c-2,0-3.8,1.2-4.6,3H33c1.7,0,3-1.3,3-3v-3.5
	C34.9,28.6,33.5,28,32,28z M13.6,36c-0.8-1.8-2.5-3-4.6-3c-0.8,0-1.5,0.2-2.2,0.5c0.1-0.3,0.2-0.7,0.2-1C7,30.6,5.4,29,3.5,29
	c-1.8,0-3.2,1.3-3.5,3H0v1c0,1.7,1.4,3,3,3C3,36,13.6,36,13.6,36z"/>
</svg>
