<?xml version="1.0" encoding="utf-8"?>
<!-- Generator: Adobe Illustrator 24.1.0, SVG Export Plug-In . SVG Version: 6.00 Build 0)  -->
<svg version="1.1" id="Layer_1" xmlns="http://www.w3.org/2000/svg" xmlns:xlink="http://www.w3.org/1999/xlink" x="0px" y="0px"
	 viewBox="0 0 36 36" style="enable-background:new 0 0 36 36;" xml:space="preserve">
<style type="text/css">
	.st0{fill:#DD2E44;}
	.st1{fill:#D1D3D4;}
	.st2{fill:#D4AB88;}
	.st3{fill:#F1F2F2;}
</style>
<path class="st0" d="M20,0c-0.2,0-0.5,0-0.7,0c-0.1,0-0.2,0-0.3,0C9,0,2,4.6,2,9s6.4,4,13,4c4.4,0,7.6,0,10-0.1l0,0.1l6,15h2
	c0,0,0.3-3.1,1-7C35,15,34.5,0,20,0z"/>
<path class="st1" d="M1.2,13c-0.3,4.1,0.9,6.2,1.3,9.6c0.6,4.1,2.8,5.4,4.7,5.9c2.6,3.5,5.4,3.3,10.1,3.3c9.1,0,13.5-6.1,13.9-16.5
	c0-0.8,0-1.5-0.1-2.3L1.2,13L1.2,13z"/>
<path class="st2" d="M26.3,15.7c-0.9-1.2-2-2.2-4.5-2.6c0.9,0.4,1.8,1.9,1.9,2.7c0.1,0.8,0.2,1.5-0.5,0.7c-3-3.3-6.2-2-9.4-4
	C11.7,11.2,11,9.6,11,9.6s-0.3,2.1-3.6,4.1c-1,0.6-2.1,2-2.8,4c-0.5,1.4-0.3,2.7-0.3,4.9C4.3,29,9.5,34.4,16,34.4S27.8,29,27.8,22.6
	C27.8,18.7,27.3,17.1,26.3,15.7z"/>
<circle class="st3" cx="32" cy="29" r="4"/>
<path class="st3" d="M32,12c0,1.1-0.9,2-2,2H2c-1.1,0-2-0.9-2-2v-1c0-1.1,0.9-2,2-2h28c1.1,0,2,0.9,2,2V12z"/>
</svg>
