<?xml version="1.0" encoding="utf-8"?>
<!-- Generator: Adobe Illustrator 24.1.0, SVG Export Plug-In . SVG Version: 6.00 Build 0)  -->
<svg version="1.1" id="Layer_1" xmlns="http://www.w3.org/2000/svg" xmlns:xlink="http://www.w3.org/1999/xlink" x="0px" y="0px"
	 viewBox="0 0 36 36" style="enable-background:new 0 0 36 36;" xml:space="preserve">
<style type="text/css">
	.st0{fill:#CE9E5D;}
	.st1{fill:#FFF35F;}
	.st2{fill:#CCD6DD;}
	.st3{fill:#A0041E;}
	.st4{fill:#292F33;}
	.st5{fill:#FFDC5D;}
	.st6{fill:#F9CA55;}
	.st7{fill:#FFAC33;}
	.st8{fill:#DF1F32;}
	.st9{fill:#EA596E;}
</style>
<path class="st0" d="M32,36v-2c0-3.3-2.7-6-6-6H10c-3.3,0-6,2.7-6,6v2H32z"/>
<path class="st1" d="M4.1,33C4,33.3,4,33.7,4,34v2h28v-2c0-0.3,0-0.7-0.1-1H4.1z"/>
<path class="st2" d="M4,34h28v1H4V34z"/>
<path class="st3" d="M32,13.7c0,3.6-6.3,6.5-14,6.5S4,17.2,4,13.7s6.3-2.5,14-2.5S32,10.1,32,13.7z"/>
<path class="st4" d="M14,27h8c0,0-1,7-4,7S14,27,14,27z"/>
<path class="st5" d="M13.6,28.1c1.7,1.3,2.8,2,4.4,2c1.5,0,2.6-0.7,4.4-2v-3.8h-8.7C13.6,24.3,13.6,28.1,13.6,28.1z"/>
<path class="st6" d="M13.6,26c1.2,1.4,2.7,1.7,4.4,1.7c1.6,0,3.1-0.4,4.4-1.7v-3.5h-8.7C13.6,22.5,13.6,26,13.6,26z"/>
<path class="st7" d="M21.2,3.3c-1.9-0.6-5.9-0.5-7,1c-2.9,0.1-6.1,2.9-6.5,6.4c-0.4,3.5,0.2,4.9,0.6,7.5c0.4,3,2.1,3.9,3.4,4.3
	c1.9,2.5,3.9,2.4,7.4,2.4c6.7,0,9.3-4.5,9.6-12C28.7,8.3,26,4.9,21.2,3.3z"/>
<path class="st5" d="M25.5,13.2c-0.6-0.9-1.5-1.6-3.3-1.9c0.7,0.3,1.3,1.4,1.4,2c0.1,0.6,0.2,1.1-0.4,0.5c-2.2-2.4-4.5-1.4-6.8-2.9
	c-1.6-1-2.1-2.1-2.1-2.1s-0.2,1.5-2.7,3c-0.7,0.4-1.6,1.4-2,2.9c-0.3,1-0.2,2-0.2,3.6c0,4.7,3.8,8.6,8.6,8.6s8.6-4,8.6-8.6
	C26.6,15.4,26.3,14.3,25.5,13.2z"/>
<path class="st4" d="M27,36v-9c0-0.5-0.5-1-1-1h-1c-0.5,0-1,0.5-1,1v9H27z M12,36v-9c0-0.5-0.4-1-1-1h-1c-0.6,0-1,0.5-1,1v9H12z"/>
<path class="st8" d="M28.9,10.9c-0.9-0.2-1.1-4-3.1-6.9c-1.9-2.7-5.5-4-7.8-4s-5.9,1.3-7.8,4c-2,2.8-2.2,6.7-3.1,6.9
	C3.8,11.5,4,13.2,4,13.6c0.1-0.5,0.4-1.6,3.9-1.6c3.4-0.1,6.6,0.8,10.1,0.8s6.7-0.9,10.1-0.8c3.5,0.1,3.8,1.2,3.9,1.6
	C32,13.2,32.2,11.5,28.9,10.9z"/>
<path class="st9" d="M18,0c-2.1,0-5,3.6-5,5.1V9c0,0,0.1,1,0.9,1h8.2c0.8,0,0.9-1,0.9-1V5.1C23,3.6,20.1,0,18,0z"/>
<path class="st0" d="M23.9,25c-0.4-0.4-2.5,0.4-3,1c-0.5,0.6-0.6,1.7-1,3c-0.3,1.1-1.6,4-1.9,4.8C17.6,33,16.3,30.1,16,29
	c-0.4-1.3-0.5-2.4-1-3s-2.6-1.4-3-1s0,1.5,0,2s0,9,0,9h12c0,0,0-8.5,0-9S24.3,25.4,23.9,25z"/>
</svg>
