<?xml version="1.0" encoding="utf-8"?>
<!-- Generator: Adobe Illustrator 24.1.0, SVG Export Plug-In . SVG Version: 6.00 Build 0)  -->
<svg version="1.1" id="Layer_1" xmlns="http://www.w3.org/2000/svg" xmlns:xlink="http://www.w3.org/1999/xlink" x="0px" y="0px"
	 viewBox="0 0 36 36" style="enable-background:new 0 0 36 36;" xml:space="preserve">
<style type="text/css">
	.st0{fill:#FA743E;}
	.st1{fill:#664131;}
	.st2{fill:#0B0200;}
	.st3{fill:#7C533E;}
	.st4{fill:#66757F;}
	.st5{fill:#D99E82;}
	.st6{fill:#5C913B;}
	.st7{fill:#226699;}
	.st8{fill:#DD2E44;}
	.st9{fill:#FFCC4D;}
</style>
<path class="st0" d="M30,28h-3.6v-3.7h-8.7V28H14c-3.3,0-6,2.7-6,6v2h28v-2C36,30.7,33.3,28,30,28z"/>
<path class="st1" d="M17.6,26c1.2,1.4,2.7,1.7,4.4,1.7c1.6,0,3.1-0.4,4.4-1.7v-3.5h-8.7V26z"/>
<path class="st2" d="M25.2,3.3c-1.9-0.6-5.9-0.5-7,1c-2.9,0.1-6.1,2.9-6.5,6.4c-0.4,3.5,0.2,4.9,0.6,7.5c0.4,3,2.1,3.9,3.4,4.3
	c1.9,2.5,3.9,2.4,7.4,2.4c6.7,0,9.3-4.5,9.6-12C32.7,8.3,30,4.9,25.2,3.3z"/>
<path class="st3" d="M29.5,13.2c-0.6-0.9-1.5-1.6-3.3-1.9c0.7,0.3,1.3,1.4,1.4,2c0.1,0.6,0.2,1.1-0.4,0.5c-2.2-2.4-4.5-1.4-6.8-2.9
	c-1.6-1-2.1-2.1-2.1-2.1s-0.2,1.5-2.7,3c-0.7,0.4-1.6,1.4-2,2.9c-0.3,1-0.2,2-0.2,3.6c0,4.7,3.8,8.6,8.6,8.6s8.6-4,8.6-8.6
	C30.6,15.4,30.3,14.3,29.5,13.2z"/>
<path class="st4" d="M33.6,6.4c-0.4-2-4.9-3.9-9.6-4.1c0.3-0.2,0.7-0.4,0.9-0.5c0.7-0.2-0.2-0.9-0.9-0.9c0,0-1.1,0.5-1.9,1.4
	c-6.8,0.3-12.2,4-12.1,5c0.2,1,1.2,0,1.3,0.8c0,0.9,0.9,0.9,0.9,0.9s3.4-0.4,8.9,0.1c5.5,0.5,9.1,0.5,10.5,0.9c0.9,0.2,1-1.1,1-1.1
	S34.1,8.8,33.6,6.4z"/>
<path class="st5" d="M27.5,36c-0.3-3.9-4.1-8-9.6-9.9c-6.7-2.3-13.4-0.6-14.9,3.8c-0.7,1.9-0.3,4.1,1,6.1H27.5z"/>
<ellipse transform="matrix(0.3278 -0.9448 0.9448 0.3278 -15.6511 42.1664)" class="st6" cx="21.8" cy="32.1" rx="1.7" ry="2.1"/>
<ellipse transform="matrix(0.3278 -0.9448 0.9448 0.3278 -26.848 29.6706)" class="st7" cx="7.4" cy="33.7" rx="1.7" ry="2.1"/>
<ellipse transform="matrix(0.3278 -0.9448 0.9448 0.3278 -20.8999 28.0682)" class="st8" cx="9.3" cy="28.7" rx="1.7" ry="2.1"/>
<ellipse transform="matrix(0.2977 -0.9547 0.9547 0.2977 -15.8804 35.696)" class="st9" cx="16.3" cy="28.6" rx="1.7" ry="2.1"/>
<path class="st3" d="M1,30c0.1-1.2,1.4-3.2,3-3c1.7,0.2,0.1,3.1,0,4s0.1,2.9-1,3C1.5,34.1,0.9,32.2,1,30z"/>
</svg>
