<?xml version="1.0" encoding="utf-8"?>
<!-- Generator: Adobe Illustrator 24.1.0, SVG Export Plug-In . SVG Version: 6.00 Build 0)  -->
<svg version="1.1" id="Layer_1" xmlns="http://www.w3.org/2000/svg" xmlns:xlink="http://www.w3.org/1999/xlink" x="0px" y="0px"
	 viewBox="0 0 36 36" style="enable-background:new 0 0 36 36;" xml:space="preserve">
<style type="text/css">
	.st0{fill:#292F33;}
	.st1{fill:#E1E8ED;}
	.st2{fill:#D4AB88;}
	.st3{fill:#CC9B7A;}
	.st4{fill:#6D6E71;}
	.st5{fill:#99AAB5;}
	.st6{fill:#F5F8FA;}
	.st7{fill:#66757F;}
	.st8{fill:#C1694F;}
	.st9{fill:#662113;}
</style>
<path class="st0" d="M36,36v-2c0-3.3-2.7-6-6-6H14c-3.3,0-6,2.7-6,6v2H36z"/>
<path class="st1" d="M17,28h9.9v8H17V28z"/>
<path class="st2" d="M17.6,28.1c1.7,1.3,2.8,2,4.4,2c1.5,0,2.6-0.7,4.4-2v-3.8h-8.7L17.6,28.1L17.6,28.1z"/>
<path class="st3" d="M17.6,26c1.2,1.4,2.7,1.7,4.4,1.7c1.6,0,3.1-0.4,4.4-1.7v-3.5h-8.7L17.6,26L17.6,26z"/>
<path class="st4" d="M25.6,3.5c-1.9-0.6-6.5-0.5-7.6,1c-2.9,0.1-6.4,2.7-6.9,6.2c-0.4,3.5,0.6,5.1,0.9,7.7c0.4,3,2.1,3.9,3.4,4.3
	c1.9,2.5,3.9,2.4,7.4,2.4c6.7,0,9.9-4.5,10.1-12C33.1,8.6,30.4,5.1,25.6,3.5z"/>
<path class="st2" d="M29.4,13.5c-0.6-0.9-1.5-1.6-3.3-1.9c0.7,0.3,1.3,1.4,1.4,2c0.1,0.6,0.2,1.1-0.4,0.5c-2.2-2.4-4.5-1.4-6.8-2.9
	c-1.6-1-2.1-2.1-2.1-2.1s-0.2,1.5-2.7,3c-0.7,0.4-1.6,1.4-2,2.9c-0.3,1-0.2,2-0.2,3.6c0,4.7,3.8,8.6,8.6,8.6s8.6-4,8.6-8.6
	C30.5,15.6,30.1,14.5,29.4,13.5z"/>
<path class="st5" d="M22,30.9c0,0,3.4,2.5,4.1,2.8c0.2,0.1-0.4-3.7-0.4-3.7h-7.5c0,0-0.5,3.8-0.2,3.6C18.7,33.3,22,30.9,22,30.9"/>
<path class="st6" d="M17.3,26.6C17.9,27.2,22,30,22,30s-2.1,1.2-4.1,3.5c-0.2,0.2-1.5-4.6-1.6-5.7C16.3,27.5,17,26.4,17.3,26.6
	 M26.7,26.6C26.2,27.2,22,30,22,30s2.1,1.2,4.1,3.5c0.2,0.2,1.5-4.6,1.6-5.7C27.7,27.5,27,26.4,26.7,26.6"/>
<path class="st0" d="M27.6,28c0,0-1.5,5.5-5.6,7.4c-4.1-1.9-5.6-7.4-5.6-7.4H15v8h14v-8H27.6z"/>
<path class="st7" d="M12.1,33.3c0.3,0,0.4,2.7,0.4,2.7h-1C11.5,36,11.7,33.3,12.1,33.3 M15.1,33.3c0.3,0,0.4,2.7,0.4,2.7h-1
	C14.5,36,14.7,33.3,15.1,33.3 M31.9,33.3c-0.3,0-0.4,2.7-0.4,2.7h1C32.5,36,32.3,33.3,31.9,33.3 M28.9,33.3c-0.3,0-0.4,2.7-0.4,2.7
	h1C29.5,36,29.3,33.3,28.9,33.3"/>
<path class="st8" d="M7.9,23.7c0.5,1.2,0.2,2.5-0.6,2.8c-0.8,0.3-1.9-0.4-2.3-1.7c-0.5-1.2-0.2-2.5,0.6-2.8
	C6.3,21.7,7.4,22.4,7.9,23.7"/>
<path class="st9" d="M9.1,36l-3.5-9.2l0.2-0.1C7,26.3,7.5,25,7.1,23.9c-0.4-1.1-1.7-1.7-2.8-1.2l-2,0.8c-1.1,0.4-1.7,1.6-1.2,2.7
	c0.4,1.1,1.7,1.7,2.7,1.2l0.2-0.1L7.4,36H9.1z"/>
<path class="st8" d="M3.4,25.4c0.5,1.2,0.2,2.5-0.6,2.8c-0.8,0.3-1.9-0.4-2.3-1.7C-0.1,25.3,0.2,24,1,23.7
	C1.8,23.4,2.9,24.1,3.4,25.4"/>
<path class="st2" d="M11.3,36l-0.5-1.6c-0.4-1.2-1.7-2-2.9-1.6l-1.3,0.4c-1.2,0.4-1.9,1.6-1.6,2.8H11.3z"/>
</svg>
