<?xml version="1.0" encoding="utf-8"?>
<!-- Generator: Adobe Illustrator 24.1.0, SVG Export Plug-In . SVG Version: 6.00 Build 0)  -->
<svg version="1.1" id="Layer_1" xmlns="http://www.w3.org/2000/svg" xmlns:xlink="http://www.w3.org/1999/xlink" x="0px" y="0px"
	 viewBox="0 0 36 36" style="enable-background:new 0 0 36 36;" xml:space="preserve">
<style type="text/css">
	.st0{fill:#E1E8ED;}
	.st1{fill:#292F33;}
	.st2{fill:#7C533E;}
	.st3{fill:#664131;}
	.st4{fill:#0B0200;}
	.st5{fill:#66757F;}
	.st6{fill:#FFAC33;}
	.st7{fill:#FDCB58;}
	.st8{fill:#99AAB5;}
	.st9{fill:#F5F8FA;}
	.st10{fill:#323A3F;}
</style>
<path class="st0" d="M32,36v-2c0-3.3-2.7-6-6-6H10c-3.3,0-6,2.7-6,6v2H32z"/>
<path class="st1" d="M30,7.5c0,4.1-5.4,7.5-12,7.5c-6.6,0-12-3.4-12-7.5S11.4,0,18,0C24.6,0,30,3.4,30,7.5"/>
<path class="st2" d="M13.6,28.1c1.7,1.3,2.8,2,4.4,2s2.6-0.7,4.4-2v-3.8h-8.7C13.6,24.3,13.6,28.1,13.6,28.1z"/>
<path class="st3" d="M13.6,26c1.2,1.4,2.7,1.7,4.4,1.7c1.6,0,3.1-0.4,4.4-1.7v-3.5h-8.7C13.6,22.5,13.6,26,13.6,26z"/>
<path class="st4" d="M17.7,5.4c-1.9-0.6,0.4-0.6-0.7,0.9c-2.9,0.1-8,2.3-9,4.5c-1.1,2.2-0.2,4.9,0.1,7.5c0.4,3,2.1,3.9,3.4,4.3
	c1.9,2.5,3.9,2.4,7.4,2.4c6.7,0,9.9-4.5,10.1-12C29.1,8.4,22.5,6.9,17.7,5.4z"/>
<path class="st2" d="M25.4,13.3c-0.6-0.9-1.5-1.6-3.3-1.9c0.7,0.3,1.3,1.4,1.4,2c0.1,0.6,0.2,1.1-0.4,0.5c-2.2-2.4-4.5-1.4-6.8-2.9
	c-1.6-1-2.1-2.1-2.1-2.1s-0.2,1.5-2.7,3c-0.7,0.4-1.6,1.4-2,2.9c-0.3,1-0.2,2-0.2,3.6c0,4.7,3.8,8.6,8.6,8.6s8.6-4,8.6-8.6
	C26.5,15.4,26.1,14.3,25.4,13.3z"/>
<path class="st1" d="M8.5,9c0-1.1,4.3-2,9.5-2s9.5,0.9,9.5,2s-4.3,2-9.5,2S8.5,10.1,8.5,9"/>
<path class="st5" d="M27.5,8h-19V4.6c0,0,4-3.6,9.5-3.6s9.5,3.6,9.5,3.6V8z"/>
<path class="st6" d="M15,5c0-2.8,1.3-1,3-1s3-1.8,3,1c0,1.7-1.3,2-3,2S15,6.7,15,5"/>
<path class="st7" d="M16,5c0-1.1,0.9-2,2-2s2,0.9,2,2s-0.9,2-2,2S16,6.1,16,5 M27.5,9h-19C8.2,9,8,8.8,8,8.5S8.2,8,8.5,8h19
	C27.8,8,28,8.2,28,8.5S27.8,9,27.5,9"/>
<path class="st1" d="M11.6,29.1L5.7,30c-0.3,0-0.5-0.1-0.6-0.4l-0.2-1c0-0.3,0.1-0.5,0.4-0.6l5.9-0.9c0.3,0,0.5,0.1,0.6,0.4l0.2,1
	C12,28.8,11.8,29,11.6,29.1"/>
<path class="st7" d="M5.8,27.9l1-0.2l0.3,2l-1,0.2L5.8,27.9z M7.8,27.6l1-0.2l0.3,2l-1,0.2L7.8,27.6z M9.8,27.3l1-0.2l0.3,2l-1,0.2
	L9.8,27.3z"/>
<path class="st1" d="M30.3,30l-5.9-0.9c-0.3,0-0.5-0.3-0.4-0.6l0.2-1c0-0.3,0.3-0.5,0.6-0.4l5.9,0.9c0.3,0,0.5,0.3,0.4,0.6l-0.2,1
	C30.9,29.8,30.6,30,30.3,30"/>
<path class="st7" d="M24.9,29.1l0.3-2l1,0.2l-0.3,2L24.9,29.1z M26.9,29.4l0.3-2l1,0.2l-0.3,2L26.9,29.4z M28.9,29.8l0.3-2l1,0.2
	l-0.3,2L28.9,29.8z"/>
<path class="st8" d="M18,30.9c0,0,3.4,2.5,4.1,2.8c0.2,0.1-0.4-3.7-0.4-3.7h-7.5c0,0-0.5,3.8-0.2,3.6C14.7,33.3,18,30.9,18,30.9"/>
<path class="st1" d="M19.3,33.4c0,0,0.4-0.6,0.5-0.9c0.2-0.3,0.5-1.6,0.5-1.6l-2.2-1c0,0-0.2,0-0.2,0l-0.2,0l-0.2,0.1
	c-0.2,0.1,0.1,0,0.1,0l-2,0.8c0,0,0.3,1.2,0.5,1.6c0.2,0.3,0.5,0.9,0.5,0.9S16,34,15.7,36h4.7C20.1,34.4,19.3,33.4,19.3,33.4"/>
<path class="st9" d="M13.3,26.6C13.9,27.2,18,30,18,30s-2.1,1.2-4.1,3.5c-0.2,0.2-1.5-4.6-1.6-5.7C12.3,27.5,13,26.4,13.3,26.6
	 M22.7,26.6C22.2,27.2,18,30,18,30s2.1,1.2,4.1,3.5c0.2,0.2,1.5-4.6,1.6-5.7C23.7,27.5,23,26.4,22.7,26.6"/>
<path class="st10" d="M18,30.7c0.4,0,1.5,0.8,1.4,1.2c-0.5,1.8-0.8,1.4-1.4,1.4c-0.6,0-1,0.5-1.4-1.3C16.6,31.6,17.5,30.7,18,30.7
	 M20,36h-4c0,0,0.5-2.2,2-2.2S20,36,20,36"/>
</svg>
