<?xml version="1.0" encoding="utf-8"?>
<!-- Generator: Adobe Illustrator 24.1.0, SVG Export Plug-In . SVG Version: 6.00 Build 0)  -->
<svg version="1.1" id="Layer_1" xmlns="http://www.w3.org/2000/svg" xmlns:xlink="http://www.w3.org/1999/xlink" x="0px" y="0px"
	 viewBox="0 0 36 36" style="enable-background:new 0 0 36 36;" xml:space="preserve">
<style type="text/css">
	.st0{fill:#D1D3D4;}
	.st1{fill:#7C533E;}
</style>
<path class="st0" d="M23.1,3.1c-2.6-0.9-8.8-0.6-10.4,1.4c-4,0.1-8.8,3.7-9.4,8.5c-0.6,4.8,0.8,7,1.2,10.6c0.6,4.1,2.8,5.4,4.7,5.9
	c2.6,3.5,5.4,3.3,10.1,3.3c9.1,0,13.5-6.1,13.9-16.5C33.4,10,29.7,5.2,23.1,3.1z"/>
<path class="st1" d="M29.8,23.5c0-3.8-0.4-5.4-1.4-6.8c-0.9-1.2-2-2.2-4.5-2.6c0.9,0.4,1.8,1.9,1.9,2.7c0.1,0.8,0.2,1.5-0.5,0.7
	c-3-3.3-6.2-2-9.4-4c-2.2-1.4-2.9-2.9-2.9-2.9s-0.3,2.1-3.6,4.1c-1,0.6-2.1,2-2.8,4c-0.5,1.4-0.3,2.7-0.3,4.9v0.1
	C6.9,30.2,9.2,35,18,35C26.9,35,29.1,30.1,29.8,23.5z"/>
</svg>
