<?xml version="1.0" encoding="utf-8"?>
<!-- Generator: Adobe Illustrator 24.1.0, SVG Export Plug-In . SVG Version: 6.00 Build 0)  -->
<svg version="1.1" id="Layer_1" xmlns="http://www.w3.org/2000/svg" xmlns:xlink="http://www.w3.org/1999/xlink" x="0px" y="0px"
	 viewBox="0 0 36 36" style="enable-background:new 0 0 36 36;" xml:space="preserve">
<style type="text/css">
	.st0{fill:#E1E8ED;}
	.st1{fill:#EA596E;}
	.st2{fill:#BE1931;}
	.st3{fill:#292F33;}
	.st4{fill:#F3D2A2;}
	.st5{fill:#E2C196;}
	.st6{fill:#FFE51E;}
	.st7{fill:#55ACEE;}
	.st8{fill:#FFCC4D;}
	.st9{fill:#FFAC33;}
	.st10{fill:#FFDC5D;}
	.st11{fill:#9266CC;}
	.st12{fill:#5DADEC;}
</style>
<path class="st0" d="M36,36v-2c0-3.3-2.7-6-6-6H14c-3.3,0-6,2.7-6,6v2H36z"/>
<path class="st1" d="M29.8,28.1c0,1.4-3.5,2.4-7.8,2.4c-4.3,0-7.8-1.1-7.8-2.4c0-0.1,0-0.1,0-0.1h-0.7l-0.7,0.1l0,1
	c0.1,2.4,4.2,3.4,9.2,3.4c5,0,9.1-1,9.2-3.4l0-1C31.2,28.1,29.8,28.1,29.8,28.1z"/>
<ellipse class="st2" cx="22" cy="28.1" rx="9.2" ry="3.4"/>
<path class="st3" d="M22,30.5c-4.3,0-7.8-1.1-7.8-2.5s3.5-2.5,7.8-2.5s7.8,1.1,7.8,2.5S26.3,30.5,22,30.5z"/>
<path class="st4" d="M17.6,27.9c1.7,1.3,2.8,1.5,4.4,1.5c1.5,0,2.6-0.2,4.4-1.5v-3.8h-8.7V27.9z"/>
<path class="st5" d="M17.6,26c1.2,1.4,2.7,1.7,4.4,1.7c1.6,0,3.1-0.4,4.4-1.7v-3.5h-8.7V26z"/>
<path class="st6" d="M25.6,3.5c-1.9-0.6-6.5-0.5-7.6,1c-2.9,0.1-6.4,2.7-6.9,6.2c-0.4,3.5,0.6,5.1,0.9,7.7c0.4,3,2.1,3.9,3.4,4.3
	c1.9,2.5,3.9,2.4,7.4,2.4c6.7,0,9.9-4.5,10.1-12C33.1,8.6,30.4,5.1,25.6,3.5z"/>
<path class="st4" d="M29.4,13.5c-0.6-0.9-1.5-1.6-3.3-1.9c0.7,0.3,1.3,1.4,1.4,2c0.1,0.6,0.2,1.1-0.4,0.5c-2.2-2.4-4.5-1.4-6.8-2.9
	c-1.6-1-2.1-2.1-2.1-2.1s-0.2,1.5-2.7,3c-0.7,0.4-1.6,1.4-2,2.9c-0.3,1-0.2,2-0.2,3.6c0,4.7,3.8,8.6,8.6,8.6s8.6-4,8.6-8.6
	C30.5,15.6,30.1,14.5,29.4,13.5z"/>
<path class="st7" d="M33,33v3h3v-2c0-0.3,0-0.7-0.1-1H33z"/>
<path class="st8" d="M34,34h2v2h-2V34z"/>
<path class="st0" d="M24,36c-1.2-5.1-6-9-11.9-9S1.5,30.9,0.3,36C0.3,36,24,36,24,36z"/>
<path class="st3" d="M22.7,36c-1.2-4.5-5.4-7.8-10.5-7.8S2.8,31.5,1.6,36H22.7z"/>
<path class="st9" d="M21.6,36c-1.1-3.9-5-6.8-9.5-6.8S3.8,32.1,2.7,36H21.6z"/>
<path class="st10" d="M18.2,35l0.1-0.1c0.8-0.5,0.9-1.5,0.3-2.2c-0.5-0.5-1-0.9-1.6-1.3c-0.6-0.4-1.2-0.6-1.8-0.8
	c-0.8-0.3-1.7,0.2-1.9,1.1c-0.1,0.7,0.2,1.3,0.9,1.6c0.9,0.3,1.6,0.8,2.2,1.5C16.9,35.3,17.6,35.4,18.2,35z"/>
<path class="st11" d="M6.3,14.3l-1.5-0.6l-0.6-2.2C4.1,11.2,3.9,11,3.6,11c-0.3,0-0.6,0.2-0.6,0.5l-0.6,2.2l-1.5,0.6
	c-0.3,0.1-0.4,0.3-0.4,0.6s0.2,0.5,0.4,0.6l1.5,0.6l0.6,2.4C3,18.8,3.3,19,3.6,19s0.6-0.2,0.6-0.5l0.6-2.4l1.5-0.6
	c0.3-0.1,0.4-0.3,0.4-0.6C6.8,14.6,6.6,14.4,6.3,14.3z"/>
<path class="st12" d="M11.3,4.6l-2.6-1l-1-2.6c-0.2-0.4-0.6-0.7-1-0.7s-0.9,0.3-1,0.7l-1,2.6l-2.6,1c-0.4,0.2-0.7,0.6-0.7,1
	s0.3,0.9,0.7,1l2.6,1l1,2.6c0.2,0.4,0.6,0.7,1,0.7s0.9-0.3,1-0.7l1-2.6l2.6-1c0.4-0.2,0.7-0.6,0.7-1S11.7,4.8,11.3,4.6z"/>
</svg>
