<?xml version="1.0" encoding="utf-8"?>
<!-- Generator: Adobe Illustrator 24.1.0, SVG Export Plug-In . SVG Version: 6.00 Build 0)  -->
<svg version="1.1" id="Layer_1" xmlns="http://www.w3.org/2000/svg" xmlns:xlink="http://www.w3.org/1999/xlink" x="0px" y="0px"
	 viewBox="0 0 36 36" style="enable-background:new 0 0 36 36;" xml:space="preserve">
<style type="text/css">
	.st0{fill:#CCD6DC;}
	.st1{fill:#F5F8FA;}
	.st2{fill:#50A5E6;}
	.st3{fill:#77B255;}
	.st4{fill:#DD2F45;}
	.st5{fill:#226798;}
	.st6{fill:#3A87C2;}
	.st7{fill:#F7DECE;}
	.st8{fill:#EEC2AD;}
	.st9{fill:#292F33;}
	.st10{fill:#F4F7F9;}
</style>
<path class="st0" d="M30,26c0,2.2-1.8,4-4,4H4c-2.2,0-4-1.8-4-4V4c0-2.2,1.8-4,4-4h22c2.2,0,4,1.8,4,4V26z"/>
<path class="st1" d="M28,26c0,1.1-0.9,2-2,2H4c-1.1,0-2-0.9-2-2V4c0-1.1,0.9-2,2-2h22c1.1,0,2,0.9,2,2V26z"/>
<path class="st2" d="M6,26c-0.6,0-1-0.4-1-1V13c0-0.6,0.4-1,1-1s1,0.4,1,1v12C7,25.6,6.6,26,6,26z"/>
<path class="st3" d="M10,26c-0.6,0-1-0.4-1-1V8c0-0.6,0.4-1,1-1s1,0.4,1,1v17C11,25.6,10.6,26,10,26z"/>
<path class="st4" d="M14,26c-0.6,0-1-0.4-1-1v-7c0-0.6,0.4-1,1-1s1,0.4,1,1v7C15,25.6,14.6,26,14,26z"/>
<path class="st5" d="M36,36v-2c0-3.3-2.7-6-6-6H14c-3.3,0-6,2.7-6,6v2H36z"/>
<path class="st6" d="M16.7,36h3.5L17,28h-2l-1,6l3,1L16.7,36z M27.3,36h-3.5l3.2-8h2l1,6l-3,1L27.3,36z"/>
<path class="st0" d="M24,36l3-6H17l3,6H24z"/>
<path class="st7" d="M18.3,28.7c0.7,0.6,1.4,1.5,2.1,2.3c0.8,1.1,2.4,1.1,3.3,0c0.6-0.8,1.4-1.7,2-2.3c0.4-0.4,0.7-1,0.7-1.5v-0.8
	c0-1.1-0.9-2.1-2.1-2.1h-4.6c-1.1,0-2.1,0.9-2.1,2.1v0.8C17.6,27.7,17.9,28.3,18.3,28.7z"/>
<path class="st8" d="M17.6,26c1.2,1.4,2.7,1.7,4.4,1.7c1.6,0,3.1-0.4,4.4-1.7v-3.5h-8.7L17.6,26L17.6,26z"/>
<path class="st9" d="M25.7,3.3c-1.9-0.6-6.5-0.5-7.6,1c-2.9,0.1-6.4,2.7-6.9,6.2c-0.4,3.5,0.6,5.1,0.9,7.7c0.4,3,2.1,3.9,3.4,4.3
	c1.9,2.5,3.9,2.4,7.4,2.4c6.7,0,9.9-4.5,10.1-12C33.3,8.4,30.6,4.9,25.7,3.3z"/>
<path class="st7" d="M29.5,13.3c-0.6-0.9-1.5-1.6-3.3-1.9c0.7,0.3,1.3,1.4,1.4,2c0.1,0.6,0.2,1.1-0.4,0.5c-2.2-2.4-4.5-1.4-6.8-2.9
	c-1.6-1-2.1-2.1-2.1-2.1s-0.2,1.5-2.7,3c-0.7,0.4-1.6,1.4-2,2.9c-0.3,1-0.2,2-0.2,3.6c0,4.7,3.8,8.6,8.6,8.6s8.6-4,8.6-8.6
	C30.6,15.4,30.3,14.3,29.5,13.3z"/>
<path class="st10" d="M26.7,26.8c-0.6,0.6-2.7,3.8-2.7,3.8s1.1,0.8,3.1,3.1c0.2,0.2,0.5-4.6,0.6-5.7C27.7,27.7,27,26.5,26.7,26.8
	 M17.3,26.8c0.6,0.6,2.7,3.8,2.7,3.8s-1.1,0.8-3.1,3.1c-0.2,0.2-0.5-4.6-0.6-5.7C16.3,27.7,17,26.5,17.3,26.8"/>
</svg>
