<?xml version="1.0" encoding="utf-8"?>
<!-- Generator: Adobe Illustrator 24.1.0, SVG Export Plug-In . SVG Version: 6.00 Build 0)  -->
<svg version="1.1" id="Layer_1" xmlns="http://www.w3.org/2000/svg" xmlns:xlink="http://www.w3.org/1999/xlink" x="0px" y="0px"
	 viewBox="0 0 36 36" style="enable-background:new 0 0 36 36;" xml:space="preserve">
<style type="text/css">
	.st0{fill:#CCD6DD;}
	.st1{fill:#F3D2A2;}
	.st2{fill:#E2C196;}
	.st3{fill:#FFE51E;}
	.st4{fill:#226699;}
	.st5{fill:#F5F8FA;}
	.st6{fill:#3B88C3;}
	.st7{fill:#55ACEE;}
	.st8{fill:#66757F;}
</style>
<path class="st0" d="M36,36v-2c0-3.3-2.7-6-6-6H14c-3.3,0-6,2.7-6,6v2H36z"/>
<path class="st1" d="M17.6,28c0,2.8,8.7,3,8.7,0v-3.7h-8.7V28z"/>
<path class="st2" d="M17.6,26c1.2,1.4,2.7,1.7,4.4,1.7c1.6,0,3.1-0.4,4.4-1.7v-3.5h-8.7L17.6,26L17.6,26z"/>
<path class="st3" d="M25.2,3.3c-1.9-0.6-5.9-0.5-7,1c-2.9,0.1-6.1,2.9-6.5,6.4c-0.4,3.5,0.2,4.9,0.6,7.5c0.4,3,2.1,3.9,3.4,4.3
	c1.9,2.5,3.9,2.4,7.4,2.4c6.7,0,9.3-4.5,9.6-12C32.7,8.3,30,4.9,25.2,3.3z"/>
<path class="st1" d="M29.5,13.3c-0.6-0.9-1.5-1.6-3.3-1.9c0.7,0.3,1.3,1.4,1.4,2c0.1,0.6,0.2,1.1-0.4,0.5c-2.2-2.4-4.5-1.4-6.8-2.9
	c-1.6-1-2.1-2.1-2.1-2.1s-0.2,1.5-2.7,3c-0.7,0.4-1.6,1.4-2,2.9c-0.3,1-0.2,2-0.2,3.6c0,4.7,3.8,8.6,8.6,8.6s8.6-4,8.6-8.6
	C30.6,15.4,30.3,14.3,29.5,13.3z"/>
<path class="st4" d="M13,28h3v8h-3V28z M28,28h3v8h-3V28z"/>
<path class="st4" d="M13,31h18v5H13V31z"/>
<ellipse class="st5" cx="27.8" cy="33.8" rx="2.2" ry="1.2"/>
<path class="st6" d="M31,9.5c0,1.3-18,1.3-18,0C13,6,14,1,22,1C29,1,31,6,31,9.5z"/>
<path class="st4" d="M13.1,9.5c0,0-0.5,3,1.5,3c1,0,2.5-2,7.5-2s6.5,2,7.5,2c2,0,1.5-3,1.5-3s-1.5,0.5-9,0.5S13.1,9.5,13.1,9.5z"/>
<path class="st7" d="M13,9c0,0-0.5,3,1.5,3c1,0,2.5-2,7.5-2s6.5,2,7.5,2c2,0,1.5-3,1.5-3s-1.5,0.5-9,0.5S13,9,13,9z"/>
<path class="st4" d="M20.5,1.5c0,0,0-1.5,1.5-1.5s1.5,1.5,1.5,1.5H20.5z"/>
<path class="st8" d="M9.5,23.6c0-1.8-1-3.4-2.5-4.2l0,4.4c0,0.6-1,1-2.2,1c-1.2,0-2.2-0.4-2.3-1l0-4.4C1,20.3,0,21.9,0,23.7
	c0,2.1,1.4,3.8,3.2,4.5V36h3v-7.9C8.1,27.5,9.5,25.7,9.5,23.6z"/>
</svg>
