<?xml version="1.0" encoding="utf-8"?>
<!-- Generator: Adobe Illustrator 24.1.0, SVG Export Plug-In . SVG Version: 6.00 Build 0)  -->
<svg version="1.1" id="Layer_1" xmlns="http://www.w3.org/2000/svg" xmlns:xlink="http://www.w3.org/1999/xlink" x="0px" y="0px"
	 viewBox="0 0 36 36" style="enable-background:new 0 0 36 36;" xml:space="preserve">
<style type="text/css">
	.st0{fill:#E1E8ED;}
	.st1{fill:#226699;}
	.st2{fill:#FFDC5D;}
	.st3{fill:#F9CA55;}
	.st4{fill:#FFAC33;}
	.st5{fill:#CCD6DD;}
	.st6{fill:#99AAB5;}
	.st7{fill:#C1694F;}
</style>
<path class="st0" d="M36,36v-2c0-3.3-2.7-6-6-6H14c-3.3,0-6,2.7-6,6v2H36z"/>
<path class="st1" d="M22,36l5-8H17L22,36z"/>
<path class="st2" d="M17.6,28c0,2,8.7,2,8.7,0v-3.7h-8.7V28z"/>
<path class="st3" d="M17.6,26c1.2,1.4,2.7,1.7,4.4,1.7c1.6,0,3.1-0.4,4.4-1.7v-3.5h-8.7L17.6,26L17.6,26z"/>
<path class="st4" d="M23.2,7c-1.9-0.6,1.4-3.7,0.3-2.2c-2.9,0.1-7.7,3.2-9.8,6c-2.3,3-1.8,4.9-1.5,7.5c0.4,3,2.1,3.9,3.4,4.3
	c1.9,2.5,3.9,2.4,7.4,2.4c6.7,0,9.2-4.9,8.9-11.1C31.6,10.9,28,8.5,23.2,7z"/>
<path class="st2" d="M29.5,13.3c-0.6-0.9-1.5-1.6-3.3-1.9c0.7,0.3,1.7,1.7,1.8,2.3c0.1,0.6,0.1,1.8-0.4,1.1c-2-2.9-4.9-2.4-7.2-3.9
	c-1.6-1-2.1-2.1-2.1-2.1s-0.2,1.5-2.7,3c-0.7,0.4-1.6,1.4-2,2.9c-0.3,1-0.2,2-0.2,3.6c0,4.7,3.8,8.6,8.6,8.6s8.6-4,8.6-8.6
	C30.6,15.4,30.3,14.3,29.5,13.3z"/>
<path class="st5" d="M31.2,12c0,0-2.6,1-9.2,1s-9.2-1-9.2-1V6h18.4L31.2,12L31.2,12z"/>
<path class="st6" d="M16,11.2c0,0.3-0.2,0.5-0.5,0.5S15,11.5,15,11.2v-3c0-0.3,0.2-0.5,0.5-0.5S16,8,16,8.2V11.2z M29,11.2
	c0,0.3-0.2,0.5-0.5,0.5S28,11.5,28,11.2v-3c0-0.3,0.2-0.5,0.5-0.5S29,8,29,8.2V11.2z M19,11.6c0,0.3-0.2,0.5-0.5,0.5
	S18,11.9,18,11.6v-3c0-0.3,0.2-0.5,0.5-0.5S19,8.4,19,8.6V11.6z M22.5,11.8c0,0.3-0.2,0.5-0.5,0.5s-0.5-0.2-0.5-0.5v-3
	c0-0.3,0.2-0.5,0.5-0.5s0.5,0.2,0.5,0.5V11.8z M26,11.6c0,0.3-0.2,0.5-0.5,0.5S25,11.9,25,11.6v-3c0-0.3,0.2-0.5,0.5-0.5
	S26,8.4,26,8.6V11.6z"/>
<path class="st0" d="M28.2,0c-1.2,0-2.2,0.3-3.2,0.9c-0.9-0.5-2-0.9-3.2-0.9c-1.1,0-2.2,0.3-3.1,0.8c-0.9-0.5-2-0.8-3.1-0.8
	c-3.5,0-6.2,2.8-6.2,6.2s11.3,3.2,12.4,3.2c1.2,0,12.6,0.2,12.6-3.2S31.7,0,28.2,0z"/>
<path class="st6" d="M10,24.8c0,3.5-2,5.2-4.5,5.2S1,28.2,1,24.8s2-7.2,4.5-7.2S10,21.3,10,24.8z"/>
<path class="st6" d="M4.5,28h2v8h-2V28z"/>
<path class="st7" d="M10,24.8c0,3.5-2,5.2-4.5,5.2S1,28.2,1,24.8s2-7.2,4.5-7.2S10,21.3,10,24.8z"/>
<path class="st7" d="M4.5,28h2v8h-2V28z"/>
<path class="st5" d="M14.9,4.5c0,0,0.1,0,0.1,0c0.2,0,0.4-0.2,0.5-0.4c0-0.1,0.3-1.4,1.3-2.2c0.8-0.6,1.7-1,2-1.1
	c-0.4-0.2-0.8-0.4-1.3-0.5c-0.4,0.2-0.9,0.5-1.4,0.8c-1.2,1-1.6,2.5-1.7,2.8C14.5,4.2,14.6,4.4,14.9,4.5z M27.1,1.9
	c1,0.8,1.3,2.1,1.3,2.2c0.1,0.2,0.3,0.4,0.5,0.4c0,0,0.1,0,0.1,0c0.3-0.1,0.4-0.3,0.4-0.6c-0.1-0.3-0.4-1.8-1.7-2.8
	c-0.4-0.3-0.9-0.6-1.3-0.8c-0.4,0.1-0.9,0.3-1.2,0.5C25.5,1,26.3,1.4,27.1,1.9z"/>
</svg>
