<?xml version="1.0" encoding="utf-8"?>
<!-- Generator: Adobe Illustrator 24.1.0, SVG Export Plug-In . SVG Version: 6.00 Build 0)  -->
<svg version="1.1" id="Layer_1" xmlns="http://www.w3.org/2000/svg" xmlns:xlink="http://www.w3.org/1999/xlink" x="0px" y="0px"
	 viewBox="0 0 36 36" style="enable-background:new 0 0 36 36;" xml:space="preserve">
<style type="text/css">
	.st0{fill:#292F33;}
	.st1{fill:#66757F;}
	.st2{fill:#FA743E;}
	.st3{fill:#DD551F;}
	.st4{fill:#D4AB88;}
	.st5{fill:#CC9B7A;}
	.st6{fill:#963B22;}
	.st7{fill:#FFCC4D;}
</style>
<path class="st0" d="M26,28H10c-3.3,0-6,2.7-6,6v2h28v-2C32,30.7,29.3,28,26,28z"/>
<path class="st1" d="M8.1,33.3c0.3,0,0.4,2.7,0.4,2.7h-1C7.5,36,7.7,33.3,8.1,33.3 M11.1,33.3c0.3,0,0.4,2.7,0.4,2.7h-1
	C10.5,36,10.7,33.3,11.1,33.3 M24.9,33.3c-0.3,0-0.4,2.7-0.4,2.7h1C25.5,36,25.3,33.3,24.9,33.3 M27.9,33.3c-0.3,0-0.4,2.7-0.4,2.7
	h1C28.5,36,28.3,33.3,27.9,33.3"/>
<path class="st2" d="M12.4,28c0,0,0.2,0.8,0.8,2c0.8,1.8,2.4,4.3,4.9,5.4c2.5-1.2,4-3.7,4.9-5.4c0.5-1.1,0.8-2,0.8-2
	S12.4,28,12.4,28z"/>
<path class="st3" d="M18,32c2.3,0,3.9-1,4.9-2c0.5-1.1,0.8-2,0.8-2H12.4c0,0,0.2,0.8,0.8,2C14.1,31,15.7,32,18,32z"/>
<path class="st4" d="M13.6,28.1c0,0.9,2.4,2,4.4,2s4.4-1.1,4.4-2v-3.8h-8.7L13.6,28.1L13.6,28.1z"/>
<path class="st5" d="M13.6,26c1.2,1.4,2.7,1.7,4.4,1.7c1.6,0,3.1-0.4,4.4-1.7v-3.5h-8.7L13.6,26L13.6,26z"/>
<path class="st6" d="M21.2,3.3c-1.9-0.6-5.9-0.5-7,1c-2.9,0.1-6.1,2.9-6.5,6.4c-0.4,3.5,0.2,4.9,0.6,7.5c0.4,3,2.1,3.9,3.4,4.3
	c1.9,2.5,3.9,2.4,7.4,2.4c6.7,0,9.3-4.5,9.6-12C28.7,8.3,26,4.9,21.2,3.3z"/>
<path class="st4" d="M25.5,13.2c-0.6-0.9-1.5-1.6-3.3-1.9c0.7,0.3,1.3,1.4,1.4,2c0.1,0.6,0.2,1.1-0.4,0.5c-2.2-2.4-4.5-1.4-6.8-2.9
	c-1.6-1-2.1-2.1-2.1-2.1s-0.2,1.5-2.7,3c-0.7,0.4-1.6,1.4-2,2.9c-0.3,1-0.2,2-0.2,3.6c0,4.7,3.8,8.6,8.6,8.6s8.6-4,8.6-8.6
	C26.6,15.4,26.3,14.3,25.5,13.2z"/>
<path class="st0" d="M32.1,3.5l-14-3c-0.1,0-0.1,0-0.2,0l-14,3C3.7,3.6,3.5,3.8,3.5,4c0,0.2,0.1,0.4,0.4,0.5l4.9,1.4
	C8.6,6.5,8.5,7.2,8.5,8c0,2.3,3.3,3.5,9.5,3.5s9.5-1.2,9.5-3.5c0-0.8-0.1-1.5-0.3-2.1l4.9-1.4c0.2-0.1,0.4-0.3,0.4-0.5
	C32.5,3.8,32.3,3.6,32.1,3.5z"/>
<path class="st1" d="M32.5,3.9c-0.1-0.3-0.3-0.4-0.6-0.3L18,7.5l-13.9-4C3.9,3.4,3.6,3.6,3.5,3.9C3.4,4.1,3.6,4.4,3.9,4.5l14,4
	c0,0,0.1,0,0.1,0s0.1,0,0.1,0l14-4C32.4,4.4,32.6,4.1,32.5,3.9z"/>
<path class="st7" d="M18,3.5l-12,1c0,0-0.5,0.1-0.5,0.5v6.1C5.2,11.3,5,11.8,5,13.5C5,16,5.4,18,6,18s1-2,1-4.5
	c0-1.7-0.2-2.2-0.5-2.4V5.5l11.5-1c0.3,0,0.5-0.3,0.5-0.5C18.5,3.7,18.2,3.5,18,3.5z"/>
</svg>
