<?xml version="1.0" encoding="utf-8"?>
<!-- Generator: Adobe Illustrator 24.1.0, SVG Export Plug-In . SVG Version: 6.00 Build 0)  -->
<svg version="1.1" id="Layer_1" xmlns="http://www.w3.org/2000/svg" xmlns:xlink="http://www.w3.org/1999/xlink" x="0px" y="0px"
	 viewBox="0 0 36 36" style="enable-background:new 0 0 36 36;" xml:space="preserve">
<style type="text/css">
	.st0{fill:#D99E82;}
	.st1{fill:#5C913B;}
	.st2{fill:#FFFFFF;}
	.st3{fill:#CCD6DD;}
	.st4{fill:#99AAB5;}
	.st5{fill:#F3D2A2;}
	.st6{fill:#E2C196;}
	.st7{fill:#FFE51E;}
	.st8{fill:#F5F8FA;}
</style>
<path class="st0" d="M30,26c0,2.2-1.8,4-4,4H4c-2.2,0-4-1.8-4-4V4c0-2.2,1.8-4,4-4h22c2.2,0,4,1.8,4,4V26z"/>
<path class="st1" d="M28,26c0,1.1-0.9,2-2,2H4c-1.1,0-2-0.9-2-2V4c0-1.1,0.9-2,2-2h22c1.1,0,2,0.9,2,2V26z"/>
<path class="st2" d="M7.5,8.9C7.4,9,7.3,9.1,7.3,9.3c0,0.4,0.3,0.5,0.6,0.5h2.7c0.3,0,0.6-0.2,0.6-0.5s-0.3-0.5-0.6-0.5H9.1
	c0.7-0.9,1.9-2,1.9-3.1c0-1-0.8-1.7-1.8-1.7S7.4,4.9,7.4,5.9c0,0.3,0.2,0.6,0.6,0.6c0.8,0,0.3-1.3,1.2-1.3c0.3,0,0.6,0.3,0.6,0.6
	c0,0.3-0.1,0.5-0.3,0.7C8.9,7.4,8.2,8.1,7.5,8.9z M6.2,14.3H5v-1.2c0-0.3-0.2-0.5-0.5-0.5c-0.3,0-0.5,0.2-0.5,0.5v1.2H2.9
	c-0.3,0-0.5,0.2-0.5,0.5c0,0.3,0.2,0.5,0.5,0.5h1.2v1.2c0,0.3,0.2,0.5,0.5,0.5c0.3,0,0.5-0.2,0.5-0.5v-1.2h1.2
	c0.3,0,0.5-0.2,0.5-0.5C6.7,14.5,6.5,14.3,6.2,14.3z M10.6,15.8H9.1c0.7-0.9,1.9-2,1.9-3.1c0-1-0.8-1.7-1.8-1.7s-1.9,0.8-1.9,1.8
	c0,0.3,0.2,0.6,0.6,0.6c0.8,0,0.3-1.3,1.2-1.3c0.3,0,0.6,0.3,0.6,0.6c0,0.3-0.1,0.5-0.3,0.7c-0.6,0.9-1.3,1.6-2,2.4
	c-0.1,0.1-0.2,0.2-0.2,0.4c0,0.4,0.3,0.5,0.6,0.5h2.7c0.3,0,0.6-0.2,0.6-0.5C11.2,15.9,10.9,15.8,10.6,15.8z M11.4,19H3.1
	c-0.3,0-0.5-0.2-0.5-0.5S2.8,18,3.1,18h8.3c0.3,0,0.5,0.2,0.5,0.5C11.9,18.7,11.7,19,11.4,19z"/>
<path class="st3" d="M36,36v-2c0-3.3-2.7-6-6-6H14c-3.3,0-6,2.7-6,6v2H36z"/>
<path class="st4" d="M22.1,30.8c0,0,3.3,0.9,4.5,1.3c0.2,0.1-1-2.1-1-2.1h-7.5c0,0-0.7,1.5-1.1,2.2c2-0.6,4.8-1.5,4.8-1.5"/>
<path class="st5" d="M17.6,28.1c0.8,0.6,1.2,1.6,2.3,1.9c0.3,0.7,0.7,1.6,1.1,2.5c0.4,0.8,1.5,0.8,1.8,0c0.4-0.8,0.8-1.8,1.1-2.5
	c1.1-0.4,1.6-1.3,2.4-1.9v-3.8h-8.7C17.6,24.3,17.6,28.1,17.6,28.1z"/>
<path class="st6" d="M17.6,26c1.2,1.4,2.7,1.7,4.4,1.7c1.6,0,3.1-0.4,4.4-1.7v-3.5h-8.7L17.6,26L17.6,26z"/>
<path class="st7" d="M25.7,3.3c-1.9-0.6-6.5-0.5-7.6,1c-2.9,0.1-6.4,2.7-6.9,6.2c-0.4,3.5,0.6,5.1,0.9,7.7c0.4,3,2.1,3.9,3.4,4.3
	c1.9,2.5,3.9,2.4,7.4,2.4c6.7,0,9.9-4.5,10.1-12C33.3,8.4,30.6,4.9,25.7,3.3z"/>
<path class="st5" d="M29.5,13.3c-0.6-0.9-1.5-1.6-3.3-1.9c0.7,0.3,1.3,1.4,1.4,2c0.1,0.6,0.2,1.1-0.4,0.5c-2.2-2.4-4.5-1.4-6.8-2.9
	c-1.6-1-2.1-2.1-2.1-2.1s-0.2,1.5-2.7,3c-0.7,0.4-1.6,1.4-2,2.9c-0.3,1-0.2,2-0.2,3.6c0,4.7,3.8,8.6,8.6,8.6s8.6-4,8.6-8.6
	C30.6,15.4,30.3,14.3,29.5,13.3z"/>
<path class="st8" d="M17.2,26.6c0.6,0.6,2.7,3.4,2.7,3.4s-1.2,0.7-2.6,2c-0.5,0.5-1.4,0.1-1.3-0.6c0.1-1.3,0.2-2.9,0.2-3.5
	C16.3,27.5,17,26.4,17.2,26.6 M26.7,26.6C26.1,27.2,24,30,24,30s1.2,0.7,2.6,2c0.5,0.5,1.4,0.1,1.3-0.6c-0.1-1.3-0.2-2.9-0.2-3.5
	C27.6,27.5,26.9,26.4,26.7,26.6"/>
</svg>
