<?xml version="1.0" encoding="utf-8"?>
<!-- Generator: Adobe Illustrator 24.1.0, SVG Export Plug-In . SVG Version: 6.00 Build 0)  -->
<svg version="1.1" id="Layer_1" xmlns="http://www.w3.org/2000/svg" xmlns:xlink="http://www.w3.org/1999/xlink" x="0px" y="0px"
	 viewBox="0 0 36 36" style="enable-background:new 0 0 36 36;" xml:space="preserve">
<style type="text/css">
	.st0{fill:#E95F28;}
	.st1{fill:#D4AB88;}
</style>
<path class="st0" d="M23.1,2.1c-2.6-0.9-8.8-0.6-10.4,1.4c-4,0.1-8.8,3.7-9.4,8.5c-0.6,4.8,0.8,7,1.2,10.6c0.6,4.1,2.8,5.4,4.7,5.9
	c2.6,3.5,5.4,3.3,10.1,3.3c9.1,0,13.5-6.1,13.9-16.5C33.4,9,29.7,4.2,23.1,2.1z"/>
<path class="st1" d="M28.3,15.7c-0.9-1.2-2-2.2-4.5-2.6c0.9,0.4,1.8,1.9,1.9,2.7c0.1,0.8,0.2,1.5-0.5,0.7c-3-3.3-6.2-2-9.4-4
	C13.7,11.2,13,9.6,13,9.6s-0.3,2.1-3.6,4.1c-1,0.6-2.1,2-2.8,4c-0.5,1.4-0.3,2.7-0.3,4.9c0,6.4,5.3,11.8,11.8,11.8
	S29.8,29,29.8,22.6C29.8,18.7,29.3,17.1,28.3,15.7z"/>
</svg>
