<?xml version="1.0" encoding="utf-8"?>
<!-- Generator: Adobe Illustrator 24.1.0, SVG Export Plug-In . SVG Version: 6.00 Build 0)  -->
<svg version="1.1" id="Layer_1" xmlns="http://www.w3.org/2000/svg" xmlns:xlink="http://www.w3.org/1999/xlink" x="0px" y="0px"
	 viewBox="0 0 36 36" style="enable-background:new 0 0 36 36;" xml:space="preserve">
<style type="text/css">
	.st0{fill:#CCD6DD;}
	.st1{fill:#F3D2A2;}
	.st2{fill:#E2C196;}
	.st3{fill:#FFE51E;}
	.st4{fill:#66757F;}
	.st5{fill:#F5F8FA;}
	.st6{fill:#9266CC;}
	.st7{fill:#A8BCCC;}
	.st8{fill:#E1E8ED;}
</style>
<path class="st0" d="M36,36v-4c0-3.3-2.7-6-6-6H14c-3.3,0-6,2.7-6,6v4H36z"/>
<path class="st1" d="M18,27l4,4l4-4v-5h-8V27z"/>
<path class="st2" d="M18,24c1.2,1.4,2.4,1.7,4,1.7c1.6,0,2.8-0.3,4-1.7v-4h-8V24z"/>
<path class="st3" d="M25.6,1.1c-1.9-0.6-6.5-0.5-7.6,1c-2.9,0.1-6.4,2.7-6.9,6.2c-0.4,3.5,0.6,5.1,0.9,7.7c0.4,3,2.1,3.9,3.4,4.3
	c1.9,2.5,3.9,2.4,7.4,2.4c6.7,0,9.9-4.5,10.1-12C33.1,6.1,30.4,2.6,25.6,1.1z"/>
<path class="st1" d="M29.4,11c-0.6-0.9-1.5-1.6-3.3-1.9c0.7,0.3,1.3,1.4,1.4,2c0.1,0.6,0.2,1.1-0.4,0.5c-2.2-2.4-4.5-1.4-6.8-2.9
	c-1.6-1-2.1-2.1-2.1-2.1s-0.2,1.5-2.7,3c-0.7,0.4-1.6,1.4-2,2.9c-0.3,1-0.2,2-0.2,3.6c0,4.7,3.8,8.6,8.6,8.6s8.6-4,8.6-8.6
	C30.5,13.2,30.1,12,29.4,11z"/>
<path class="st4" d="M19.1,36L18,26.8c0,0,1.4,1.6,4,1.6s4.2-1.6,4.2-1.6L25,36H19.1z"/>
<path class="st5" d="M18.1,25.2C18.6,25.8,21,36,21,36h-3.2l-1.7-2.6l1.7-2.8l-2-0.6l0.3-4C16.1,26,17.8,25,18.1,25.2 M25.9,25.2
	C25.4,25.8,23,36,23,36h3.2l1.7-2.6l-1.7-2.8l2-0.6l-0.3-4C27.9,26,26.2,25,25.9,25.2"/>
<circle class="st6" cx="7" cy="11" r="1"/>
<circle class="st6" cx="9" cy="16" r="1"/>
<circle class="st6" cx="5.5" cy="14.5" r="1.5"/>
<path class="st7" d="M10,18H5c0,0-2,0-2,2s2,2,2,2v5l-4,5c-0.9,1.1-1,1.8-1,2c0,2,2,2,2,2h11c0,0,2,0,2-2c0-0.1,0.2-0.6-1-2l-4-5v-5
	c0,0,2,0,2-2S10,18,10,18z"/>
<path class="st8" d="M9,27.4V21h1c0.4,0,1-0.2,1-1c0-0.8-0.5-1-1-1H5c-0.4,0-1,0.2-1,1s0.6,1,1,1l1,0l0,6.3l-1.9,2.4l3.4,3.5
	l3.4-3.5L9,27.4z"/>
<path class="st6" d="M1,34c0,0.8,0.6,1,1,1h11c0.4,0,1-0.2,1-1v0l0-0.1c0,0-0.1-0.3-0.8-1.3l-2.3-2.9H4.1l-2.3,2.9
	C1.1,33.5,1,34,1,34z"/>
</svg>
