<?xml version="1.0" encoding="utf-8"?>
<!-- Generator: Adobe Illustrator 24.1.0, SVG Export Plug-In . SVG Version: 6.00 Build 0)  -->
<svg version="1.1" id="Layer_1" xmlns="http://www.w3.org/2000/svg" xmlns:xlink="http://www.w3.org/1999/xlink" x="0px" y="0px"
	 viewBox="0 0 36 36" style="enable-background:new 0 0 36 36;" xml:space="preserve">
<style type="text/css">
	.st0{fill:#E1E8ED;}
	.st1{fill:#77B255;}
	.st2{fill:#D4AB88;}
	.st3{fill:#CC9B7A;}
	.st4{fill:#963B22;}
	.st5{fill:#A6D388;}
	.st6{opacity:0.7;fill:#FFFFFF;enable-background:new    ;}
</style>
<g>
	<circle class="st0" cx="4.5" cy="25.5" r="4.5"/>
	<circle class="st0" cx="25.5" cy="20.5" r="5.5"/>
	<circle class="st0" cx="31" cy="26.5" r="5"/>
	<circle class="st0" cx="12" cy="24" r="5"/>
	<path class="st0" d="M33,30c-1.7,0-3,1.3-3,3H6c0-1.7-1.3-3-3-3s-3,1.3-3,3c0,1.7,1.3,3,3,3h29v-0.2c0.3,0.1,0.6,0.2,1,0.2
		c1.7,0,3-1.3,3-3S34.7,30,33,30z"/>
	<path class="st0" d="M0,25.5h9V33H0V25.5z M20,23h9v4h-9V23z M31,26.5h5V33h-5V26.5z"/>
</g>
<path class="st1" d="M23.4,20c1,0.3,2.8,1.1,2.6,2.9c1.9,0.4,2.3,2,2.4,2.9c0.2,1.8-7.4-0.2-7.4-0.2l-1-3.5L23.4,20z M13,20.5
	c-0.8,0.2-2.7,0.5-3.6,2.8c-2,0-2.3,2-2.3,3.5c0,2.3,7.3,2,8.5,0.7c1.2-1.3,0.8-5.4,0.8-5.4L13,20.5z"/>
<path class="st2" d="M32,36v-4c0-3.3-2.7-6-6-6H10c-3.3,0-6,2.7-6,6v4H32z"/>
<path class="st2" d="M13.7,27.1L18,31l4.3-2.6L22,22h-8L13.7,27.1z"/>
<path class="st3" d="M14,24c1.2,1.4,2.4,1.7,4,1.7c1.6,0,2.8-0.3,4-1.7v-4h-8V24z"/>
<path class="st2" d="M11.4,13.9c0,1.4-0.7,2.6-1.6,2.6s-1.6-1.2-1.6-2.6s0.7-2.6,1.6-2.6C10.7,11.3,11.4,12.5,11.4,13.9 M27.8,13.9
	c0,1.4-0.7,2.6-1.6,2.6c-0.9,0-1.6-1.2-1.6-2.6s0.7-2.6,1.6-2.6C27.1,11.3,27.8,12.5,27.8,13.9"/>
<path class="st2" d="M9.5,15c0-5.6,3.8-10.1,8.5-10.1s8.5,4.5,8.5,10.1S22.7,25.1,18,25.1C13.3,25.1,9.5,20.5,9.5,15"/>
<path class="st4" d="M18,1.5c5.6,0,9.2,4.2,9.2,7.6s-0.7,4.9-1.4,3.5l-1.4-2.8c0,0-4.2,0-5.6-1.4c0,0,2.1,4.2-2.1,0
	c0,0,0.7,2.8-3.5-0.7c0,0-2.1,1.4-2.8,4.9c-0.2,1-1.4,0-1.4-3.5C8.8,5.6,11.6,1.5,18,1.5"/>
<path class="st1" d="M13.8,25.7c-0.3,3.4,0.3,5.6,0.6,6.7c0.2,0.5-0.2,1-0.7,1c-0.7,0-1.6,0.1-2.1,0.1c-1,0-3.5,2.2-3.9-0.2
	C7.1,30.9,7,28.7,7,27.9s-0.2-3.2,1.2-3.2c1.8,0,2.2-0.2,2.9-0.7C11.9,23.4,13.8,24.9,13.8,25.7z M22.2,25.7
	c0.2,3.3-0.3,5.4-0.6,6.4c-0.1,0.5-0.3,0.9,0.1,1.2c0.7,0.7,2-0.1,2.5-0.1c0.9,0,2.9,2.3,3.6-1c0.6-3,0.6-5.5,0.6-6.3
	s-0.5-1-1.1-1.4c-1.5-0.8-2-0.1-2.7-0.7C23.9,23.4,22.1,24.9,22.2,25.7z"/>
<path class="st5" d="M8,25.2c0.2-0.7,0.9-1.2,1.1-0.6c0.2,0.5,0.2,3.5,0.3,4.4s-0.6-0.2-0.9-0.9C8.2,27.4,7.9,25.9,8,25.2z
	 M27.1,24.4c-0.2-0.6-0.8-0.3-1,0.2s0,1.7,0,2.5s0.3,0,0.6-0.6C26.9,25.9,27.3,24.9,27.1,24.4z M10.3,23.5c0-0.5,0.9-1.2,1-0.7
	c0.1,0.5,0.6,6.1,0.8,7.3s-0.2,1-0.5,0.1S10.2,25.1,10.3,23.5z M25.1,22.7c-0.2-0.1-0.8,0.2-0.9,0.6c0,0.4,0,4-0.2,5
	c-0.2,1,0.1,0.8,0.4,0.1S26.2,23.3,25.1,22.7z"/>
<path class="st6" d="M32,28c-3,0-5.4,2.2-5.9,5c0,0-0.1,0-0.1,0c-2,0-3.8,1.2-4.6,3H33c1.7,0,3-1.3,3-3v-3.5
	C34.9,28.6,33.5,28,32,28z M13.6,36c-0.8-1.8-2.5-3-4.6-3c-0.8,0-1.5,0.2-2.2,0.5c0.1-0.3,0.2-0.7,0.2-1C7,30.6,5.4,29,3.5,29
	c-1.8,0-3.2,1.3-3.5,3H0v1c0,1.7,1.4,3,3,3C3,36,13.6,36,13.6,36z"/>
</svg>
